<?xml version="1.0" encoding="UTF-8"?>
<svg version="1.1" xmlns="http://www.w3.org/2000/svg" width="250" height="239">
<path d="M0 0 C0.68964844 -0.45890625 1.37929687 -0.9178125 2.08984375 -1.390625 C16.27473882 -10.65264154 28.87785838 -14.87364615 46 -12 C52.47041757 -10.63758414 58.87321763 -9.01651623 65.27734375 -7.375 C68.7267098 -6.5004649 72.06717953 -5.79828875 75.60546875 -5.421875 C79 -5 79 -5 81.375 -3.25 C83.07589098 -0.89492019 84.06222574 1.2588137 85 4 C85.33 4.66 85.66 5.32 86 6 C86 6.99 86 7.98 86 9 C85.18321777 8.79318604 84.36643555 8.58637207 83.52490234 8.37329102 C80.47265061 7.60166895 77.41986099 6.83222159 74.36669922 6.06420898 C73.04942477 5.73238758 71.7323634 5.39971901 70.41552734 5.06616211 C68.51457069 4.58480708 66.61276083 4.10682558 64.7109375 3.62890625 C62.99849854 3.1968689 62.99849854 3.1968689 61.25146484 2.75610352 C48.74522637 -0.15212749 33.59175807 -1.4164479 22 5 C21.34 5.66 20.68 6.32 20 7 C20.83917969 6.7834375 20.83917969 6.7834375 21.6953125 6.5625 C44.211738 1.3496941 67.57589013 9.23077671 89.15014648 15.52856445 C91.0048453 16.08231887 91.0048453 16.08231887 93 16 C93.70226141 17.24176695 94.38629109 18.49385599 95.0625 19.75 C95.44535156 20.44609375 95.82820312 21.1421875 96.22265625 21.859375 C97.1312406 24.36140628 96.88336837 25.5332355 96 28 C96.86625 27.9175 97.7325 27.835 98.625 27.75 C102.81753297 28.060558 104.77004111 29.37096369 108 32 C108.33 32.99 108.66 33.98 109 35 C109.66 35.66 110.32 36.32 111 37 C111.33 37.99 111.66 38.98 112 40 C111.67 40.66 111.34 41.32 111 42 C112.299375 41.9071875 112.299375 41.9071875 113.625 41.8125 C117.55039318 42.0305774 119.74569678 42.80523736 123 45 C124 50 124 50 124 62 C90.01 62 56.02 62 21 62 C20.67 62.99 20.34 63.98 20 65 C7.79 65 -4.42 65 -17 65 C-17 64.01 -17 63.02 -17 62 C-52.97 62 -88.94 62 -126 62 C-126 59.36 -126 56.72 -126 54 C-125.34 54 -124.68 54 -124 54 C-123.773125 52.741875 -123.54625 51.48375 -123.3125 50.1875 C-122.54003421 47.14591597 -122.26270052 46.22517188 -119.8125 44.125 C-116.58878103 42.83551241 -113.36343187 41.85734538 -110 41 C-109.67 39.02 -109.34 37.04 -109 35 C-108.34 35 -107.68 35 -107 35 C-106.03885609 33.89121049 -105.1292946 32.73725649 -104.25 31.5625 C-101.93526293 28.73464388 -101.29092844 28.08081346 -97.625 27.0625 C-96.75875 27.041875 -95.8925 27.02125 -95 27 C-94.566875 25.63875 -94.566875 25.63875 -94.125 24.25 C-91.74427956 17.37236318 -91.74427956 17.37236318 -88.96655273 15.98266602 C-88.13067627 15.74217529 -87.2947998 15.50168457 -86.43359375 15.25390625 C-85.48524658 14.97619385 -84.53689941 14.69848145 -83.55981445 14.41235352 C-82.52945068 14.13190186 -81.49908691 13.8514502 -80.4375 13.5625 C-79.37426514 13.264646 -78.31103027 12.96679199 -77.21557617 12.65991211 C-57.380713 7.24459198 -38.408869 2.41925185 -18 7 C-19.41328129 6.18162558 -20.83078346 5.37053781 -22.25 4.5625 C-23.43335937 3.88380859 -23.43335937 3.88380859 -24.640625 3.19140625 C-41.69547964 -5.42073061 -67.04061715 4.28245407 -84 9 C-82.2679878 -0.1929878 -82.2679878 -0.1929878 -79 -3 C-78.34 -3.66 -77.68 -4.32 -77 -5 C-74.61724834 -5.54072419 -72.28273026 -5.98529316 -69.875 -6.375 C-64.02689905 -7.38551989 -58.30304926 -8.62083941 -52.5625 -10.125 C-33.42685786 -15.02074814 -15.2814654 -13.70198577 0 0 Z M-67 25 C-66.01 25.33 -65.02 25.66 -64 26 C-67.96 26 -71.92 26 -76 26 C-76.33 26.66 -76.66 27.32 -77 28 C-63.83913705 28.34906022 -50.851376 27.93786428 -37.75 26.6875 C-36.43563965 26.56979248 -35.1212793 26.45208496 -33.76708984 26.33081055 C-32.53941895 26.20488525 -31.31174805 26.07895996 -30.046875 25.94921875 C-28.95213867 25.83924561 -27.85740234 25.72927246 -26.72949219 25.6159668 C-23.82730824 24.9610285 -22.80056767 24.31182547 -21 22 C-26.06391101 19.97282031 -30.44461037 19.65132307 -35.8125 19.6875 C-36.63693604 19.69023926 -37.46137207 19.69297852 -38.31079102 19.69580078 C-47.45049387 19.84767819 -58.94974873 20.26455808 -67 25 Z M20 23 C20.639375 23.144375 21.27875 23.28875 21.9375 23.4375 C24 24 24 24 25 25 C29.68504859 25.70236047 34.41028231 26.10563879 39.125 26.5625 C39.81941193 26.6310318 40.51382385 26.6995636 41.22927856 26.77017212 C53.84236704 27.99680612 66.32679977 28.33912429 79 28 C78.505 27.01 78.505 27.01 78 26 C75.79826454 25.26352567 75.79826454 25.26352567 73.1171875 24.74609375 C71.61285156 24.42415039 71.61285156 24.42415039 70.078125 24.09570312 C69.02109375 23.87849609 67.9640625 23.66128906 66.875 23.4375 C65.32425781 23.10588867 65.32425781 23.10588867 63.7421875 22.76757812 C55.31871765 20.98940943 47.2357572 19.80502081 38.625 19.75 C37.82578125 19.729375 37.0265625 19.70875 36.203125 19.6875 C30.30183084 19.64930392 25.47443684 20.82596488 20 23 Z M-71 25 C-67 26 -67 26 -67 26 Z " fill="#152D4B" transform="translate(126,140)"/>
<path d="M0 0 C1.98437736 1.29204466 1.98437736 1.29204466 4.4609375 0.921875 C7.20448101 0.00595355 9.22757135 -1.18913189 11.625 -2.80078125 C25.10914763 -11.09871825 38.99539334 -9.49454991 53.9375 -6.55078125 C55.12923828 -6.3290625 56.32097656 -6.10734375 57.54882812 -5.87890625 C62.59344619 -4.91586855 67.26959515 -3.97086272 72 -1.92578125 C72.103125 -0.83265625 72.20625 0.26046875 72.3125 1.38671875 C73.02701565 5.21912085 73.40196178 5.59427317 76 8.07421875 C75.5859375 10.15625 75.5859375 10.15625 75 12.07421875 C68.67885721 11.08237667 62.48018792 9.72756521 56.27172852 8.19433594 C38.73415272 3.79328473 38.73415272 3.79328473 21 6.07421875 C17.45850078 8.26994827 16.31276018 9.1359382 15 13.07421875 C14.34 13.40421875 13.68 13.73421875 13 14.07421875 C12.67 14.73421875 12.34 15.39421875 12 16.07421875 C10 18.07421875 10 18.07421875 7.28515625 18.3046875 C6.22167969 18.29050781 5.15820312 18.27632812 4.0625 18.26171875 C3.00160156 18.25527344 1.94070312 18.24882812 0.84765625 18.2421875 C-2 18.07421875 -2 18.07421875 -5 17.07421875 C-7.07530387 14.1534207 -8 12.69875144 -8 9.07421875 C-24.37391363 -0.15471438 -42.22392114 6.14185998 -59.23828125 10.83203125 C-60.08430908 11.07066895 -60.93033691 11.30930664 -61.80200195 11.55517578 C-64 12.07421875 -64 12.07421875 -67 12.07421875 C-66.13461021 7.31457488 -65.17323894 2.42069663 -63 -1.92578125 C-60.31892008 -3.50869725 -57.76908802 -4.32921208 -54.734375 -4.9609375 C-53.92613281 -5.13044922 -53.11789063 -5.29996094 -52.28515625 -5.47460938 C-51.03025391 -5.72887695 -51.03025391 -5.72887695 -49.75 -5.98828125 C-48.92886719 -6.16166016 -48.10773438 -6.33503906 -47.26171875 -6.51367188 C-30.61343769 -9.95677913 -14.04118696 -11.32619183 0 0 Z " fill="#152D4B" transform="translate(123,114.92578125)"/>
<path d="M0 0 C7.7215922 3.19175512 13.73434955 0.60131248 21.13671875 -2.3125 C31.02299383 -5.85914577 45.03068588 -5.88300392 54.89453125 -2.30078125 C58.66953189 -0.16293878 60.21092438 2.98575251 61.4375 7 C61.540625 7.5775 61.64375 8.155 61.75 8.75 C62.245 9.74 62.245 9.74 62.75 10.75 C62.42 11.41 62.09 12.07 61.75 12.75 C61.15832031 12.61722656 60.56664062 12.48445313 59.95703125 12.34765625 C59.16683594 12.17105469 58.37664062 11.99445313 57.5625 11.8125 C56.78519531 11.63847656 56.00789063 11.46445313 55.20703125 11.28515625 C54.39621094 11.10855469 53.58539063 10.93195313 52.75 10.75 C51.97914063 10.57597656 51.20828125 10.40195313 50.4140625 10.22265625 C47.76522177 9.75270064 45.35483535 9.63585991 42.66796875 9.65234375 C41.73662109 9.65556641 40.80527344 9.65878906 39.84570312 9.66210938 C38.88599609 9.67048828 37.92628906 9.67886719 36.9375 9.6875 C35.95845703 9.69201172 34.97941406 9.69652344 33.97070312 9.70117188 C31.56373889 9.71291316 29.15690143 9.72933581 26.75 9.75 C27.245 11.73 27.245 11.73 27.75 13.75 C26.62464844 13.91435547 26.62464844 13.91435547 25.4765625 14.08203125 C20.34963733 14.87625266 15.43496302 15.7530729 10.5 17.375 C3.36042307 19.61821636 -4.19980865 19.48524021 -11.25 16.75 C-11.91 15.76 -12.57 14.77 -13.25 13.75 C-11.93 13.09 -10.61 12.43 -9.25 11.75 C-14.90433791 8.60870116 -20.49881591 8.55720662 -26.8125 8.5625 C-27.60446777 8.56185547 -28.39643555 8.56121094 -29.21240234 8.56054688 C-35.69715941 8.61838781 -41.90870638 9.35740219 -48.25 10.75 C-47.44143543 6.15517633 -46.32785937 3.36648476 -43.25 -0.25 C-29.51704422 -8.22723167 -14.05699617 -6.1807861 0 0 Z " fill="#152D4C" transform="translate(124.25,89.25)"/>
<path d="M0 0 C1.67241346 1.30516943 3.33894836 2.61790102 5 3.9375 C8.40991622 6.48661349 8.40991622 6.48661349 12.5 6.88671875 C15.10367213 6.0934124 17.51684727 5.11273354 20 4 C33.83553051 -1.24559021 45.65313638 0.76593584 59 6 C57.25 9.875 57.25 9.875 55 11 C49.8421999 11.29976958 44.68606977 11.15686792 39.5625 10.5 C32.86832809 9.654166 25.52948715 9.0458067 19 11 C20.05960938 11.13277344 21.11921875 11.26554687 22.2109375 11.40234375 C23.59898279 11.58053875 24.98700231 11.7589346 26.375 11.9375 C27.07367188 12.02451172 27.77234375 12.11152344 28.4921875 12.20117188 C33.7734375 12.88671875 33.7734375 12.88671875 36 14 C36 14.66 36 15.32 36 16 C27.48962048 20.13639004 20.23614405 23.52275735 10.625 23.7578125 C7.12931999 24.0803306 4.67616109 25.33771652 1.71875 27.16015625 C0 28 0 28 -4 28 C-6.24675342 26.55713083 -8.01317985 24.80620014 -10 23 C-9.67 22.01 -9.34 21.02 -9 20 C-4.71 20 -0.42 20 4 20 C-6.32351439 9.67648561 -18.20245994 3.91726652 -32.8203125 3.17578125 C-35 3 -35 3 -37 2 C-36.67 1.01 -36.34 0.02 -36 -1 C-25.33481964 -6.14214053 -10.23184493 -6.20649172 0 0 Z " fill="#152D4B" transform="translate(139,56)"/>
<path d="M0 0 C0 0.99 0 1.98 0 3 C-0.96679688 3.36351562 -1.93359375 3.72703125 -2.9296875 4.1015625 C-10.75565898 7.10311195 -17.98007056 10.34207035 -25 15 C-24.01 15.66 -23.02 16.32 -22 17 C-22 17.66 -22 18.32 -22 19 C-23.11375 19.4125 -24.2275 19.825 -25.375 20.25 C-28.69318927 21.65691225 -29.54851658 22.6823236 -31 26 C-34.08739446 28.41202693 -37.22037249 29.39782223 -40.9375 30.4375 C-45.34313129 31.6765838 -48.32783121 33.31304723 -52 36 C-55.93670488 37.31223496 -58.12488144 36.24296256 -62 35 C-61.3125 33.125 -61.3125 33.125 -60 31 C-58.35619011 30.2788126 -56.68967412 29.60598975 -55 29 C-55.95519531 28.79246094 -56.91039062 28.58492187 -57.89453125 28.37109375 C-65.76188377 26.539838 -71.84945483 24.26582162 -78.57421875 19.61328125 C-83.95207594 16.03670312 -89.6444358 14.66203794 -96 14 C-96.33 13.01 -96.66 12.02 -97 11 C-87.21854272 7.35564185 -78.48882562 8.53410973 -68.80859375 11.83984375 C-63.9446683 13.32147027 -59.0500676 14.34145393 -54.0625 15.3125 C-53.16208984 15.49586914 -52.26167969 15.67923828 -51.33398438 15.86816406 C-45.95211975 16.88858492 -41.06378052 17.80926956 -36.1015625 14.87890625 C-34.69697428 13.62666754 -33.34652925 12.31446903 -32 11 C-32 10.34 -32 9.68 -32 9 C-31.443125 8.9175 -30.88625 8.835 -30.3125 8.75 C-27.84750604 8.1208081 -27.84750604 8.1208081 -25.84765625 6.09375 C-22.45062862 3.59607262 -19.16257382 2.67071777 -15.125 1.75 C-14.44308594 1.57726562 -13.76117188 1.40453125 -13.05859375 1.2265625 C-8.60231231 0.15705496 -4.57902291 -0.16737943 0 0 Z " fill="#152D4C" transform="translate(217,18)"/>
<path d="M0 0 C3.60038194 0.54551242 6.54001265 1.68720966 9.84375 3.1796875 C13.4711022 4.55965844 17.25121515 5.32089901 21.03515625 6.15625 C24 7 24 7 26.69140625 8.48828125 C31.30466667 10.59611098 35.87221037 11.06723543 40.875 11.6875 C41.84953125 11.81705078 42.8240625 11.94660156 43.828125 12.08007812 C46.2176664 12.39634096 48.60804077 12.70267813 51 13 C51 14.32 51 15.64 51 17 C47.37710825 18.01440969 43.72118378 18.47772859 40 19 C39.21625 19.20625 38.4325 19.4125 37.625 19.625 C30.97152487 20.57549645 24.39831035 18.68376588 18 17 C17.34 17 16.68 17 16 17 C16.50603992 14.83125748 16.99983813 13.00032373 18 11 C17.20335937 10.89042969 16.40671875 10.78085938 15.5859375 10.66796875 C9.8527586 9.81008432 4.97419107 9.03978343 0 6 C0 4.02 0 2.04 0 0 Z " fill="#152D4A" transform="translate(153,0)"/>
<path d="M0 0 C3.96 0 7.92 0 12 0 C11.67 0.66 11.34 1.32 11 2 C8.36 2 5.72 2 3 2 C3 2.66 3 3.32 3 4 C6.03255996 4.22887245 8.97563724 4.36790102 12 4 C13.77409808 2.07977297 13.77409808 2.07977297 15 0 C17.5 -0.25 17.5 -0.25 20 0 C20.99 0 21.98 0 23 0 C31.33333333 0 39.66666667 0 48 0 C47.67 1.98 47.34 3.96 47 6 C44.36 6 41.72 6 39 6 C39 6.66 39 7.32 39 8 C41.97 8 44.94 8 48 8 C48 8.99 48 9.98 48 11 C46.18757948 11.02687279 44.37504767 11.04633715 42.5625 11.0625 C41.55316406 11.07410156 40.54382813 11.08570313 39.50390625 11.09765625 C37 11 37 11 36 10 C35.85884839 7.32941149 35.95752893 4.67567762 36 2 C34.58422523 3.18424326 34.58422523 3.18424326 34.9375 6.5625 C34.958125 7.696875 34.97875 8.83125 35 10 C27.14464652 11.16375607 22.61332945 10.19615273 15 8 C14.67 8.99 14.34 9.98 14 11 C11.85423363 11.02685938 9.70837355 11.04633088 7.5625 11.0625 C6.36753906 11.07410156 5.17257813 11.08570313 3.94140625 11.09765625 C1 11 1 11 0 10 C-0.14257189 6.66381769 -0.04228157 3.34024394 0 0 Z M23 2 C23 2.33 23 2.66 23 3 C24.65 3 26.3 3 28 3 C28 2.67 28 2.34 28 2 C26.35 2 24.7 2 23 2 Z M39 2 C39 2.66 39 3.32 39 4 C41.64 4 44.28 4 47 4 C47 3.34 47 2.68 47 2 C44.36 2 41.72 2 39 2 Z M18 3 C17.67 3.66 17.34 4.32 17 5 C17.66 5 18.32 5 19 5 C18.67 4.34 18.34 3.68 18 3 Z M25 4 C26 6 26 6 26 6 Z M3 6 C3 6.66 3 7.32 3 8 C5.64 8 8.28 8 11 8 C11 7.34 11 6.68 11 6 C8.36 6 5.72 6 3 6 Z M12 6 C13 8 13 8 13 8 Z M24 6 C25 8 25 8 25 8 Z " fill="#162D4C" transform="translate(102,227)"/>
<path d="M0 0 C0.42751439 5.21567553 0.42751439 5.21567553 0 8 C-2.0625 10.0625 -2.0625 10.0625 -5 11 C-8.5625 10.625 -8.5625 10.625 -12 10 C-13.33542939 10.32483418 -14.66961551 10.6550855 -16 11 C-16.66 10.34 -17.32 9.68 -18 9 C-19.98491642 9.26676204 -19.98491642 9.26676204 -22 10 C-25.56045177 11.18681726 -28.43808337 11.09689832 -32.1875 11.0625 C-33.45980469 11.05347656 -34.73210938 11.04445312 -36.04296875 11.03515625 C-37.50669922 11.01775391 -37.50669922 11.01775391 -39 11 C-39 7.37 -39 3.74 -39 0 C-35.37 0 -31.74 0 -28 0 C-28 0.66 -28 1.32 -28 2 C-30.64 2 -33.28 2 -36 2 C-36 2.66 -36 3.32 -36 4 C-33.36 4 -30.72 4 -28 4 C-28 4.66 -28 5.32 -28 6 C-30.64 6 -33.28 6 -36 6 C-36 6.66 -36 7.32 -36 8 C-33.03 8 -30.06 8 -27 8 C-26.690625 6.865625 -26.38125 5.73125 -26.0625 4.5625 C-25 1 -25 1 -24 0 C-21.625 -0.25 -21.625 -0.25 -19 0 C-17.1875 1.5 -17.1875 1.5 -16 3 C-15.2575 2.525625 -14.515 2.05125 -13.75 1.5625 C-8.73687901 -1.2858642 -5.70565853 -0.98751782 0 0 Z M-10 2 C-10 3.32 -10 4.64 -10 6 C-6.59679066 6.67673447 -6.59679066 6.67673447 -3 7 C-2.34 6.34 -1.68 5.68 -1 5 C-2.12109566 3.37506099 -2.12109566 3.37506099 -4 2 C-7.12549017 1.74951364 -7.12549017 1.74951364 -10 2 Z M-21 3 C-21.33 3.66 -21.66 4.32 -22 5 C-21.34 5 -20.68 5 -20 5 C-20.33 4.34 -20.66 3.68 -21 3 Z M-15 4 C-15.33 4.66 -15.66 5.32 -16 6 C-15.34 6 -14.68 6 -14 6 C-14.33 5.34 -14.66 4.68 -15 4 Z M-15 7 C-14.67 7.66 -14.34 8.32 -14 9 C-13.34 8.67 -12.68 8.34 -12 8 C-12.99 7.67 -13.98 7.34 -15 7 Z M-10 7 C-10 7.33 -10 7.66 -10 8 C-8.02 8 -6.04 8 -4 8 C-4 7.67 -4 7.34 -4 7 C-5.98 7 -7.96 7 -10 7 Z " fill="#152D4B" transform="translate(53,227)"/>
<path d="M0 0 C0.99 0.66 1.98 1.32 3 2 C3 2.66 3 3.32 3 4 C0.69 4 -1.62 4 -4 4 C-1.36 4.33 1.28 4.66 4 5 C4 5.66 4 6.32 4 7 C4.66 7 5.32 7 6 7 C5.34 5.35 4.68 3.7 4 2 C9.04097484 -0.44847349 11.8445689 0.28152297 17 2 C16.814375 2.804375 16.62875 3.60875 16.4375 4.4375 C16.2209375 5.7059375 16.2209375 5.7059375 16 7 C16.33 7.33 16.66 7.66 17 8 C17.33 5.36 17.66 2.72 18 0 C18.99 0 19.98 0 21 0 C21 3.63 21 7.26 21 11 C17 12 17 12 14 11 C13.67 10.34 13.34 9.68 13 9 C11.35 9 9.7 9 8 9 C7.67 9.66 7.34 10.32 7 11 C4.72942623 11.05398987 2.45848712 11.09278742 0.1875 11.125 C-1.70935547 11.15980469 -1.70935547 11.15980469 -3.64453125 11.1953125 C-7 11 -7 11 -10 9 C-10.4375 6.0625 -10.4375 6.0625 -10 3 C-7.08002964 -0.36919657 -4.2911853 -0.45650907 0 0 Z M-7 4 C-6 6 -6 6 -6 6 Z M-5 5 C-4 7 -4 7 -4 7 Z M-6 8 C-6 8.33 -6 8.66 -6 9 C-4.02 9 -2.04 9 0 9 C0 8.67 0 8.34 0 8 C-1.98 8 -3.96 8 -6 8 Z " fill="#152D4B" transform="translate(10,211)"/>
<path d="M0 0 C0 2.97 0 5.94 0 9 C-4.31975522 11.22532845 -7.29918409 11.06433568 -12 10 C-14.76223278 7.23776722 -14.57856291 4.79293383 -15 1 C-9.4584498 -0.96263236 -5.79141983 -1.01603857 0 0 Z M-10 2 C-7.28450846 4.30671915 -7.28450846 4.30671915 -4.8125 3.625 C-4.214375 3.41875 -3.61625 3.2125 -3 3 C-4.12534105 1.64381501 -4.12534105 1.64381501 -7.0625 1.9375 C-8.031875 1.958125 -9.00125 1.97875 -10 2 Z M-9 4 C-8.34 4.66 -7.68 5.32 -7 6 C-7 5.34 -7 4.68 -7 4 C-7.66 4 -8.32 4 -9 4 Z M-10 7 C-10 7.33 -10 7.66 -10 8 C-7.69 8 -5.38 8 -3 8 C-3 7.67 -3 7.34 -3 7 C-5.31 7 -7.62 7 -10 7 Z " fill="#162D4D" transform="translate(87,227)"/>
<path d="M0 0 C1.32 0 2.64 0 4 0 C5.33333333 1.33333333 6.66666667 2.66666667 8 4 C8.433125 3.34 8.86625 2.68 9.3125 2 C9.869375 1.34 10.42625 0.68 11 0 C11.99 0 12.98 0 14 0 C14 3.63 14 7.26 14 11 C12.68 10.67 11.36 10.34 10 10 C7.81296615 10.37907282 7.81296615 10.37907282 6 11 C5.34 10.01 4.68 9.02 4 8 C3.67 8.99 3.34 9.98 3 11 C2.01 11 1.02 11 0 11 C0 7.37 0 3.74 0 0 Z M7 6 C8 8 8 8 8 8 Z M10 7 C11 9 11 9 11 9 Z " fill="#152D4B" transform="translate(60,211)"/>
<path d="M0 0 C3 1 3 1 4.1875 3.0625 C4.455625 3.701875 4.72375 4.34125 5 5 C5.66 3.35 6.32 1.7 7 0 C8.32 0 9.64 0 11 0 C11.66 1.65 12.32 3.3 13 5 C13.45375 4.175 13.9075 3.35 14.375 2.5 C14.91125 1.675 15.4475 0.85 16 0 C16.66 0 17.32 0 18 0 C17.44894091 3.9492568 16.61064629 7.34920174 15 11 C13.125 10.75 13.125 10.75 11 10 C9.75 7.9375 9.75 7.9375 9 6 C8.566875 6.825 8.13375 7.65 7.6875 8.5 C6.8521875 9.7375 6.8521875 9.7375 6 11 C5.01 11 4.02 11 3 11 C0 4.5 0 4.5 0 0 Z " fill="#142D4C" transform="translate(172,211)"/>
<path d="M0 0 C-0.06006078 1.45947705 -0.1488689 2.91779272 -0.25 4.375 C-0.31960937 5.59316406 -0.31960937 5.59316406 -0.390625 6.8359375 C-1 9 -1 9 -2.82421875 10.30078125 C-6.13618227 11.36512859 -8.65762442 10.79001605 -12 10 C-14 8.75 -14 8.75 -15 7 C-14.75546876 3.65807308 -14.39456443 2.39456443 -12 0 C-8.06175789 -1.66617936 -4.09382676 -0.61407401 0 0 Z M-10 2 C-8.16116119 4.28728734 -8.16116119 4.28728734 -5.375 4.125 C-4.59125 4.08375 -3.8075 4.0425 -3 4 C-3.33 3.34 -3.66 2.68 -4 2 C-5.98 2 -7.96 2 -10 2 Z M-9 4 C-8 6 -8 6 -8 6 Z M-11 5 C-10 7 -10 7 -10 7 Z M-10 7 C-10 7.33 -10 7.66 -10 8 C-8.02 8 -6.04 8 -4 8 C-4 7.67 -4 7.34 -4 7 C-5.98 7 -7.96 7 -10 7 Z " fill="#142E4B" transform="translate(217,227)"/>
<path d="M0 0 C-0.33 0.99 -0.66 1.98 -1 3 C-3.64 3 -6.28 3 -9 3 C-7.81575674 4.41577477 -7.81575674 4.41577477 -4.4375 4.0625 C-2.7359375 4.0315625 -2.7359375 4.0315625 -1 4 C-0.957279 5.66611905 -0.95936168 7.33382885 -1 9 C-2.65766798 10.65766798 -4.60346405 10.21049503 -6.875 10.25 C-7.75929687 10.27578125 -8.64359375 10.3015625 -9.5546875 10.328125 C-12 10 -12 10 -13.77734375 8.68359375 C-15.52975348 6.27053115 -15.67573575 3.91837824 -16 1 C-10.44860651 -1.48351814 -5.83475015 -0.85330338 0 0 Z M-12 4 C-11 6 -11 6 -11 6 Z M-10 7 C-10 7.33 -10 7.66 -10 8 C-8.02 8 -6.04 8 -4 8 C-4 7.67 -4 7.34 -4 7 C-5.98 7 -7.96 7 -10 7 Z " fill="#152D4B" transform="translate(243,212)"/>
<path d="M0 0 C2 2 2 2 2.1953125 3.9453125 C2.13020833 5.96354167 2.06510417 7.98177083 2 10 C-2.95 10 -7.9 10 -13 10 C-12.52045944 2.68700646 -12.52045944 2.68700646 -10.4375 -0.0625 C-6.64302232 -1.52191449 -3.97043739 -0.83251107 0 0 Z M-8 2 C-7.67 3.32 -7.34 4.64 -7 6 C-5.68 6 -4.36 6 -3 6 C-2.67 4.68 -2.34 3.36 -2 2 C-3.98 2 -5.96 2 -8 2 Z M-9 3 C-8 5 -8 5 -8 5 Z M-8 7 C-8 7.33 -8 7.66 -8 8 C-6.02 8 -4.04 8 -2 8 C-1.67 7.34 -1.34 6.68 -1 6 C-3.42797311 6 -5.62907005 6.50085685 -8 7 Z " fill="#162D4B" transform="translate(88,212)"/>
<path d="M0 0 C4.29 0 8.58 0 13 0 C13 3.63 13 7.26 13 11 C11.906875 10.62875 10.81375 10.2575 9.6875 9.875 C8.470625 9.58625 7.25375 9.2975 6 9 C5.01 9.66 4.02 10.32 3 11 C2.01 11 1.02 11 0 11 C0 7.37 0 3.74 0 0 Z M3 2 C3 2.66 3 3.32 3 4 C4.98 4 6.96 4 9 4 C9 3.34 9 2.68 9 2 C7.02 2 5.04 2 3 2 Z " fill="#152D4C" transform="translate(0,227)"/>
<path d="M0 0 C1 1.75 1 1.75 0.8125 4.3125 C0 6.75 0 6.75 -2 8.75 C-4.05859375 9.05078125 -4.05859375 9.05078125 -6.4375 9.0625 C-7.61119141 9.08763672 -7.61119141 9.08763672 -8.80859375 9.11328125 C-11.52939865 8.66223873 -12.40378403 7.97656877 -14 5.75 C-14.1875 2.0625 -14.1875 2.0625 -14 -1.25 C-9.17676761 -2.56542702 -4.3575236 -2.72345225 0 0 Z M-10 0.75 C-9.67 2.07 -9.34 3.39 -9 4.75 C-7.68 4.75 -6.36 4.75 -5 4.75 C-4.67 3.43 -4.34 2.11 -4 0.75 C-5.98 0.75 -7.96 0.75 -10 0.75 Z M-4 1.75 C-3 3.75 -3 3.75 -3 3.75 Z M-9 5.75 C-9 6.08 -9 6.41 -9 6.75 C-7.35 6.75 -5.7 6.75 -4 6.75 C-4 6.42 -4 6.09 -4 5.75 C-5.65 5.75 -7.3 5.75 -9 5.75 Z " fill="#142D4C" transform="translate(171,213.25)"/>
<path d="M0 0 C8.5 -0.25 8.5 -0.25 13 2 C13 4.97 13 7.94 13 11 C10.33333333 10.33333333 7.66666667 9.66666667 5 9 C4.67 9.66 4.34 10.32 4 11 C2.68 11 1.36 11 0 11 C0 7.37 0 3.74 0 0 Z M3 3 C3 3.66 3 4.32 3 5 C4.65 5 6.3 5 8 5 C8.33 4.34 8.66 3.68 9 3 C7.02 3 5.04 3 3 3 Z M10 6 C10.66 6.66 11.32 7.32 12 8 C12 7.34 12 6.68 12 6 C11.34 6 10.68 6 10 6 Z M3 7 C7 8 7 8 7 8 Z " fill="#162D4C" transform="translate(91,211)"/>
<path d="M0 0 C10.54326923 -0.37211538 10.54326923 -0.37211538 12.85546875 1.51171875 C13.23316406 2.00285156 13.61085937 2.49398437 14 3 C13 5 13 5 11 6 C12.32 7.32 13.64 8.64 15 10 C13.1875 10.625 13.1875 10.625 11 11 C10.01 10.34 9.02 9.68 8 9 C5.47130918 9.84478498 5.47130918 9.84478498 3 11 C2.01 11 1.02 11 0 11 C0 7.37 0 3.74 0 0 Z M3 2 C3 2.66 3 3.32 3 4 C4.98 4 6.96 4 9 4 C9 3.34 9 2.68 9 2 C7.02 2 5.04 2 3 2 Z M3 6 C7 7 7 7 7 7 Z " fill="#152D4B" transform="translate(151,227)"/>
<path d="M0 0 C7.1957672 -0.35978836 7.1957672 -0.35978836 10.375 1.0625 C12.65932535 3.78611869 13.22453429 6.57502645 14 10 C9.29654425 11.21379503 4.82569313 11.07202527 0 11 C0 7.37 0 3.74 0 0 Z M3 3 C3 3.33 3 3.66 3 4 C4.65 4 6.3 4 8 4 C8 3.67 8 3.34 8 3 C6.35 3 4.7 3 3 3 Z M3 5 C3 5.66 3 6.32 3 7 C4.32 7 5.64 7 7 7 C7 6.34 7 5.68 7 5 C5.68 5 4.36 5 3 5 Z M2 8 C2 8.33 2 8.66 2 9 C3.98 9 5.96 9 8 9 C8 8.67 8 8.34 8 8 C6.02 8 4.04 8 2 8 Z " fill="#152D4C" transform="translate(215,211)"/>
<path d="M0 0 C8.3984375 -0.1953125 8.3984375 -0.1953125 11 0 C13 2 13 2 13.1953125 4.1640625 C13.17210938 4.97617188 13.14890625 5.78828125 13.125 6.625 C13.10695313 7.44226563 13.08890625 8.25953125 13.0703125 9.1015625 C13.03550781 10.04128906 13.03550781 10.04128906 13 11 C12.401875 10.690625 11.80375 10.38125 11.1875 10.0625 C8.91043228 8.89790296 8.91043228 8.89790296 6 8 C5.566875 8.495 5.13375 8.99 4.6875 9.5 C3 11 3 11 0 11 C0 7.37 0 3.74 0 0 Z M3 2 C3 2.66 3 3.32 3 4 C4.98 4 6.96 4 9 4 C9 3.34 9 2.68 9 2 C7.02 2 5.04 2 3 2 Z M10 5 C10.66 5.66 11.32 6.32 12 7 C12 6.34 12 5.68 12 5 C11.34 5 10.68 5 10 5 Z " fill="#152D4B" transform="translate(88,227)"/>
<path d="M0 0 C3.63 0 7.26 0 11 0 C11.33 2.31 11.66 4.62 12 7 C9.03 7 6.06 7 3 7 C3 7.66 3 8.32 3 9 C5.64 9 8.28 9 11 9 C11 9.66 11 10.32 11 11 C7.37 11 3.74 11 0 11 C0 7.37 0 3.74 0 0 Z M3 3 C3 3.33 3 3.66 3 4 C5.64 4 8.28 4 11 4 C11 3.67 11 3.34 11 3 C8.36 3 5.72 3 3 3 Z " fill="#162C4C" transform="translate(202,211)"/>
<path d="M0 0 C3.63 0 7.26 0 11 0 C11 2.31 11 4.62 11 7 C8.36 7 5.72 7 3 7 C3 7.66 3 8.32 3 9 C5.97 9 8.94 9 12 9 C12 9.66 12 10.32 12 11 C8.04 11 4.08 11 0 11 C0 7.37 0 3.74 0 0 Z " fill="#152D4B" transform="translate(105,211)"/>
<path d="M0 0 C1.051875 0.185625 2.10375 0.37125 3.1875 0.5625 C7.21712933 1.22231967 7.21712933 1.22231967 12 0 C12 3.96 12 7.92 12 12 C11.071875 11.649375 10.14375 11.29875 9.1875 10.9375 C6.0197047 9.67617372 6.0197047 9.67617372 3 11 C2.01 11 1.02 11 0 11 C0 7.37 0 3.74 0 0 Z M7 4 C7.66 5.32 8.32 6.64 9 8 C9.66 7.67 10.32 7.34 11 7 C10.67 5.68 10.34 4.36 10 3 C8.7763932 2.9254644 8.7763932 2.9254644 7 4 Z " fill="#152D4B" transform="translate(131,211)"/>
<path d="M0 0 C8.49609375 -0.09765625 8.49609375 -0.09765625 11 0 C12.89885096 1.89885096 12.12367506 4.57247903 12.1328125 7.08984375 C12 9 12 9 11 11 C7.37 11 3.74 11 0 11 C0 7.37 0 3.74 0 0 Z M3 2 C3 2.66 3 3.32 3 4 C5.31 4 7.62 4 10 4 C10.33 4.66 10.66 5.32 11 6 C11 4.68 11 3.36 11 2 C8.36 2 5.72 2 3 2 Z M3 6 C3 6.66 3 7.32 3 8 C5.64 8 8.28 8 11 8 C10.67 7.34 10.34 6.68 10 6 C7.69 6 5.38 6 3 6 Z " fill="#162D4C" transform="translate(185,227)"/>
<path d="M0 0 C3.04951395 1.52475697 5.36399506 2.92885326 8 5 C8.33 3.35 8.66 1.7 9 0 C9.99 0 10.98 0 12 0 C12 3.63 12 7.26 12 11 C7 10 7 10 4 9 C3.67 9.66 3.34 10.32 3 11 C2.01 11 1.02 11 0 11 C0 7.37 0 3.74 0 0 Z " fill="#152D4B" transform="translate(144,211)"/>
<path d="M0 0 C0.99 0 1.98 0 3 0 C3 1.32 3 2.64 3 4 C4.98 4 6.96 4 9 4 C9 2.68 9 1.36 9 0 C9.99 0 10.98 0 12 0 C12 3.63 12 7.26 12 11 C10.35 10.67 8.7 10.34 7 10 C7 9.34 7 8.68 7 8 C6.34 8 5.68 8 5 8 C4.67 8.66 4.34 9.32 4 10 C2.68 10.33 1.36 10.66 0 11 C0 7.37 0 3.74 0 0 Z M3 6 C3 6.33 3 6.66 3 7 C4.98 7 6.96 7 9 7 C9 6.67 9 6.34 9 6 C7.02 6 5.04 6 3 6 Z " fill="#142D4C" transform="translate(218,227)"/>
<path d="M0 0 C0.99 0 1.98 0 3 0 C3 1.32 3 2.64 3 4 C4.98 4 6.96 4 9 4 C9 2.68 9 1.36 9 0 C9.99 0 10.98 0 12 0 C12 3.63 12 7.26 12 11 C10.35 10.67 8.7 10.34 7 10 C7 9.34 7 8.68 7 8 C6.34 8 5.68 8 5 8 C4.67 8.66 4.34 9.32 4 10 C2.68 10.33 1.36 10.66 0 11 C0 7.37 0 3.74 0 0 Z M3 6 C3 6.33 3 6.66 3 7 C4.98 7 6.96 7 9 7 C9 6.67 9 6.34 9 6 C7.02 6 5.04 6 3 6 Z " fill="#152E48" transform="translate(54,227)"/>
<path d="M0 0 C0.99 0 1.98 0 3 0 C3 1.32 3 2.64 3 4 C4.98 4 6.96 4 9 4 C9 2.68 9 1.36 9 0 C9.99 0 10.98 0 12 0 C12 3.3 12 6.6 12 10 C10.68 10 9.36 10 8 10 C7.67 9.34 7.34 8.68 7 8 C6.34 8 5.68 8 5 8 C4.67 8.66 4.34 9.32 4 10 C2.68 10.33 1.36 10.66 0 11 C0 7.37 0 3.74 0 0 Z M3 6 C3 6.33 3 6.66 3 7 C4.98 7 6.96 7 9 7 C9 6.67 9 6.34 9 6 C7.02 6 5.04 6 3 6 Z " fill="#152C4A" transform="translate(171,227)"/>
<path d="M0 0 C4.12615036 1.03153759 5.8459821 2.28404014 9 5 C9.33 3.35 9.66 1.7 10 0 C10.66 0 11.32 0 12 0 C12 3.63 12 7.26 12 11 C7.80825346 9.95206337 6.78407039 9.08236365 4 6 C3.67 7.65 3.34 9.3 3 11 C2.01 11 1.02 11 0 11 C0 7.37 0 3.74 0 0 Z " fill="#152D4B" transform="translate(33,211)"/>
<path d="M0 0 C3.96 0 7.92 0 12 0 C12 1.32 12 2.64 12 4 C10.35 4 8.7 4 7 4 C7 6.31 7 8.62 7 11 C4.69 10.67 2.38 10.34 0 10 C0 6.7 0 3.4 0 0 Z " fill="#162D4B" transform="translate(231,227)"/>
<path d="M0 0 C2.475 0.495 2.475 0.495 5 1 C5 2.98 5 4.96 5 7 C6.32 7 7.64 7 9 7 C9 5.02 9 3.04 9 1 C9.33 1 9.66 1 10 1 C10 4.3 10 7.6 10 11 C6.7 11 3.4 11 0 11 C0 7.37 0 3.74 0 0 Z M3 8 C3 8.33 3 8.66 3 9 C4.98 9 6.96 9 9 9 C9 8.67 9 8.34 9 8 C7.02 8 5.04 8 3 8 Z " fill="#162D49" transform="translate(191,211)"/>
<path d="M0 0 C1.98 0 3.96 0 6 0 C6 2.31 6 4.62 6 7 C5.01 7 4.02 7 3 7 C3 7.66 3 8.32 3 9 C3.99 9 4.98 9 6 9 C6 9.66 6 10.32 6 11 C4.02 11 2.04 11 0 11 C0 7.37 0 3.74 0 0 Z " fill="#142E4A" transform="translate(244,211)"/>
<path d="M0 0 C11.88 0 23.76 0 36 0 C36 0.33 36 0.66 36 1 C24.12 1 12.24 1 0 1 C0 0.67 0 0.34 0 0 Z " fill="#162D4A" transform="translate(109,206)"/>
<path d="M0 0 C0.99 0 1.98 0 3 0 C3 3.63 3 7.26 3 11 C2.01 11 1.02 11 0 11 C0 7.37 0 3.74 0 0 Z " fill="#172C4B" transform="translate(198,227)"/>
<path d="M0 0 C-0.185625 0.598125 -0.37125 1.19625 -0.5625 1.8125 C-1.22093687 4.16408762 -1.22093687 4.16408762 0 7 C-2.97 6.505 -2.97 6.505 -6 6 C-6.33 5.01 -6.66 4.02 -7 3 C-2.25 0 -2.25 0 0 0 Z " fill="#152D4B" transform="translate(250,226)"/>
<path d="M0 0 C3.96 0 7.92 0 12 0 C11.67 0.66 11.34 1.32 11 2 C9.54207116 2.05399736 8.08357288 2.09279177 6.625 2.125 C5.81289062 2.14820312 5.00078125 2.17140625 4.1640625 2.1953125 C2 2 2 2 0 0 Z " fill="#142E4C" transform="translate(162,66)"/>
<path d="M0 0 C0.99 0 1.98 0 3 0 C3 0.66 3 1.32 3 2 C4.32 2 5.64 2 7 2 C7 2.99 7 3.98 7 5 C4.625 4.75 4.625 4.75 2 4 C0.6875 1.9375 0.6875 1.9375 0 0 Z " fill="#152E4B" transform="translate(243,233)"/>
<path d="M0 0 C6.27 0 12.54 0 19 0 C19 0.33 19 0.66 19 1 C12.73 1 6.46 1 0 1 C0 0.67 0 0.34 0 0 Z " fill="#182C49" transform="translate(155,161)"/>
<path d="M0 0 C0 0.33 0 0.66 0 1 C-5.28 1 -10.56 1 -16 1 C-16 0.67 -16 0.34 -16 0 C-10.39436958 -0.82622671 -5.57710648 -1.06795656 0 0 Z " fill="#152E4C" transform="translate(199,166)"/>
<path d="M0 0 C5.94 0 11.88 0 18 0 C18 0.33 18 0.66 18 1 C12.06 1 6.12 1 0 1 C0 0.67 0 0.34 0 0 Z " fill="#162D49" transform="translate(80,161)"/>
<path d="M0 0 C5.61 0 11.22 0 17 0 C17 0.33 17 0.66 17 1 C11.39 1 5.78 1 0 1 C0 0.67 0 0.34 0 0 Z " fill="#142D4D" transform="translate(89,98)"/>
<path d="M0 0 C4.62 0 9.24 0 14 0 C10.68629 2.20914 9.6553979 2.22481553 5.8125 2.125 C4.91144531 2.10695312 4.01039062 2.08890625 3.08203125 2.0703125 C2.39496094 2.04710937 1.70789063 2.02390625 1 2 C0.67 1.34 0.34 0.68 0 0 Z " fill="#152E4C" transform="translate(120,134)"/>
<path d="M0 0 C5.28 0 10.56 0 16 0 C16 0.33 16 0.66 16 1 C10.72 1 5.44 1 0 1 C0 0.67 0 0.34 0 0 Z " fill="#172D49" transform="translate(154,83)"/>
<path d="M0 0 C5.28 0 10.56 0 16 0 C16 0.33 16 0.66 16 1 C10.72 1 5.44 1 0 1 C0 0.67 0 0.34 0 0 Z " fill="#1C2B45" transform="translate(112,50)"/>
<path d="M0 0 C4.29 0.33 8.58 0.66 13 1 C13 1.33 13 1.66 13 2 C9.04 2 5.08 2 1 2 C0.67 1.34 0.34 0.68 0 0 Z " fill="#152D4B" transform="translate(151,162)"/>
<path d="M0 0 C-1 1 -1 1 -3.72265625 1.09765625 C-5.37587891 1.08025391 -5.37587891 1.08025391 -7.0625 1.0625 C-8.16722656 1.05347656 -9.27195312 1.04445312 -10.41015625 1.03515625 C-11.69212891 1.01775391 -11.69212891 1.01775391 -13 1 C-13 0.67 -13 0.34 -13 0 C-11.39679026 -0.19551338 -9.79237014 -0.38111983 -8.1875 -0.5625 C-7.29417969 -0.66691406 -6.40085937 -0.77132812 -5.48046875 -0.87890625 C-3 -1 -3 -1 0 0 Z " fill="#152D4C" transform="translate(103,163)"/>
<path d="M0 0 C-3.01490557 1.00496852 -5.04181692 1.10335303 -8.1875 1.0625 C-9.53908203 1.04896484 -9.53908203 1.04896484 -10.91796875 1.03515625 C-11.60503906 1.02355469 -12.29210937 1.01195312 -13 1 C-13 0.67 -13 0.34 -13 0 C-11.58456585 -0.19658808 -10.16755969 -0.38187546 -8.75 -0.5625 C-7.96109375 -0.66691406 -7.1721875 -0.77132812 -6.359375 -0.87890625 C-3.99467126 -1.00027349 -2.2488963 -0.69633257 0 0 Z " fill="#162D4C" transform="translate(99,143)"/>
<path d="M0 0 C3.96 0.33 7.92 0.66 12 1 C12 1.33 12 1.66 12 2 C10.5629191 2.05422947 9.12524538 2.09289723 7.6875 2.125 C6.88699219 2.14820313 6.08648437 2.17140625 5.26171875 2.1953125 C3 2 3 2 0 0 Z " fill="#152E4C" transform="translate(155,142)"/>
<path d="M0 0 C2.64 0 5.28 0 8 0 C8 0.66 8 1.32 8 2 C5.36 1.67 2.72 1.34 0 1 C0 0.67 0 0.34 0 0 Z " fill="#152E4C" transform="translate(143,104)"/>
<path d="M0 0 C-3.96 0 -7.92 0 -12 0 C-12 -0.33 -12 -0.66 -12 -1 C-10.56465159 -1.2226746 -9.12654475 -1.42761906 -7.6875 -1.625 C-6.48673828 -1.79902344 -6.48673828 -1.79902344 -5.26171875 -1.9765625 C-3 -2 -3 -2 0 0 Z " fill="#172D48" transform="translate(142,75)"/>
<path d="M0 0 C0.86625 0.3403125 0.86625 0.3403125 1.75 0.6875 C1.75 1.0175 1.75 1.3475 1.75 1.6875 C-0.89 2.0175 -3.53 2.3475 -6.25 2.6875 C-2.80384615 -0.38942308 -2.80384615 -0.38942308 0 0 Z " fill="#152E4C" transform="translate(154.25,143.3125)"/>
<path d="M0 0 C3.96 0 7.92 0 12 0 C12 0.33 12 0.66 12 1 C8.04 1 4.08 1 0 1 C0 0.67 0 0.34 0 0 Z " fill="#1D2B44" transform="translate(95,82)"/>
<path d="M0 0 C3.96 0 7.92 0 12 0 C12 0.33 12 0.66 12 1 C8.04 1 4.08 1 0 1 C0 0.67 0 0.34 0 0 Z " fill="#1A2C46" transform="translate(127,25)"/>
<path d="M0 0 C3.63 0 7.26 0 11 0 C11 0.33 11 0.66 11 1 C7.37 1 3.74 1 0 1 C0 0.67 0 0.34 0 0 Z " fill="#192D45" transform="translate(152,104)"/>
<path d="M0 0 C3.63 0 7.26 0 11 0 C11 0.33 11 0.66 11 1 C7.37 1 3.74 1 0 1 C0 0.67 0 0.34 0 0 Z " fill="#1C2C42" transform="translate(91,104)"/>
<path d="M0 0 C3.63 0 7.26 0 11 0 C11 0.33 11 0.66 11 1 C7.37 1 3.74 1 0 1 C0 0.67 0 0.34 0 0 Z " fill="#162D4C" transform="translate(148,80)"/>
<path d="M0 0 C3.63 0 7.26 0 11 0 C11 0.33 11 0.66 11 1 C7.37 1 3.74 1 0 1 C0 0.67 0 0.34 0 0 Z " fill="#162D49" transform="translate(171,55)"/>
<path d="M0 0 C0.33 0 0.66 0 1 0 C1 3.3 1 6.6 1 10 C0.67 10 0.34 10 0 10 C0 6.7 0 3.4 0 0 Z " fill="#182D44" transform="translate(67,227)"/>
<path d="M0 0 C3.3 0 6.6 0 10 0 C10 0.33 10 0.66 10 1 C6.7 1 3.4 1 0 1 C0 0.67 0 0.34 0 0 Z " fill="#152D4B" transform="translate(106,223)"/>
<path d="M0 0 C0.33 0 0.66 0 1 0 C1 3.3 1 6.6 1 10 C0.67 10 0.34 10 0 10 C0 6.7 0 3.4 0 0 Z " fill="#152E48" transform="translate(129,212)"/>
<path d="M0 0 C0.33 0 0.66 0 1 0 C1 3.3 1 6.6 1 10 C0.67 10 0.34 10 0 10 C0 6.7 0 3.4 0 0 Z " fill="#1D2C3A" transform="translate(58,212)"/>
<path d="M0 0 C3.3 0 6.6 0 10 0 C10 0.33 10 0.66 10 1 C6.7 1 3.4 1 0 1 C0 0.67 0 0.34 0 0 Z " fill="#152D4A" transform="translate(202,209)"/>
<path d="M0 0 C3.3 0 6.6 0 10 0 C10 0.33 10 0.66 10 1 C6.7 1 3.4 1 0 1 C0 0.67 0 0.34 0 0 Z " fill="#152E46" transform="translate(106,209)"/>
<path d="M0 0 C3.3 0 6.6 0 10 0 C10 0.33 10 0.66 10 1 C6.7 1 3.4 1 0 1 C0 0.67 0 0.34 0 0 Z " fill="#182D49" transform="translate(168,141)"/>
<path d="M0 0 C3.3 0 6.6 0 10 0 C10 0.33 10 0.66 10 1 C6.7 1 3.4 1 0 1 C0 0.67 0 0.34 0 0 Z " fill="#162D4A" transform="translate(76,141)"/>
<path d="M0 0 C3.3 0 6.6 0 10 0 C10 0.33 10 0.66 10 1 C6.7 1 3.4 1 0 1 C0 0.67 0 0.34 0 0 Z " fill="#152D4D" transform="translate(183,68)"/>
<path d="M0 0 C2.97 0 5.94 0 9 0 C9 0.33 9 0.66 9 1 C6.03 1 3.06 1 0 1 C0 0.67 0 0.34 0 0 Z " fill="#172C4E" transform="translate(203,223)"/>
<path d="M0 0 C0.33 0 0.66 0 1 0 C1 2.97 1 5.94 1 9 C0.67 9 0.34 9 0 9 C0 6.03 0 3.06 0 0 Z " fill="#152D4B" transform="translate(46,212)"/>
<path d="M0 0 C1.32 0 2.64 0 4 0 C3.67 1.32 3.34 2.64 3 4 C2.01 2.68 1.02 1.36 0 0 Z " fill="#162C4D" transform="translate(148,212)"/>
<path d="M0 0 C2.97 0 5.94 0 9 0 C9 0.33 9 0.66 9 1 C6.03 1 3.06 1 0 1 C0 0.67 0 0.34 0 0 Z " fill="#172C4C" transform="translate(105,60)"/>
<path d="M0 0 C2.97 0 5.94 0 9 0 C9 0.33 9 0.66 9 1 C6.03 1 3.06 1 0 1 C0 0.67 0 0.34 0 0 Z " fill="#192D44" transform="translate(179,20)"/>
<path d="M0 0 C2.64 0 5.28 0 8 0 C8 0.33 8 0.66 8 1 C5.36 1 2.72 1 0 1 C0 0.67 0 0.34 0 0 Z " fill="#182C4A" transform="translate(216,223)"/>
<path d="M0 0 C2.64 0 5.28 0 8 0 C8 0.33 8 0.66 8 1 C5.36 1 2.72 1 0 1 C0 0.67 0 0.34 0 0 Z " fill="#162E45" transform="translate(92,209)"/>
<path d="M0 0 C2.64 0 5.28 0 8 0 C8 0.33 8 0.66 8 1 C5.36 1 2.72 1 0 1 C0 0.67 0 0.34 0 0 Z " fill="#182C44" transform="translate(164,126)"/>
<path d="M0 0 C1.98 0 3.96 0 6 0 C4.02 0.99 4.02 0.99 2 2 C1.34 1.34 0.68 0.68 0 0 Z " fill="#152D4C" transform="translate(112,107)"/>
<path d="M0 0 C2.31 0 4.62 0 7 0 C7 0.33 7 0.66 7 1 C4.69 1 2.38 1 0 1 C0 0.67 0 0.34 0 0 Z " fill="#192C4A" transform="translate(193,223)"/>
<path d="M0 0 C0.33 0 0.66 0 1 0 C1 1.65 1 3.3 1 5 C0.34 5 -0.32 5 -1 5 C-0.67 3.35 -0.34 1.7 0 0 Z " fill="#152C52" transform="translate(189,217)"/>
<path d="M0 0 C2.31 0 4.62 0 7 0 C7 0.33 7 0.66 7 1 C4.69 1 2.38 1 0 1 C0 0.67 0 0.34 0 0 Z " fill="#172C4A" transform="translate(215,209)"/>
<path d="M0 0 C0.33 0.66 0.66 1.32 1 2 C-0.98 2 -2.96 2 -5 2 C-5 1.67 -5 1.34 -5 1 C-3.35 0.67 -1.7 0.34 0 0 Z " fill="#1C2B48" transform="translate(15,179)"/>
<path d="M0 0 C2.31 0 4.62 0 7 0 C7 0.33 7 0.66 7 1 C4.69 1 2.38 1 0 1 C0 0.67 0 0.34 0 0 Z " fill="#182D46" transform="translate(165,164)"/>
<path d="M0 0 C2.31 0 4.62 0 7 0 C7 0.33 7 0.66 7 1 C4.69 1 2.38 1 0 1 C0 0.67 0 0.34 0 0 Z " fill="#172C4C" transform="translate(82,164)"/>
<path d="M0 0 C1.32 0.66 2.64 1.32 4 2 C2.35 2 0.7 2 -1 2 C-0.67 1.34 -0.34 0.68 0 0 Z " fill="#152E4C" transform="translate(99,143)"/>
<path d="M0 0 C2.31 0 4.62 0 7 0 C7 0.33 7 0.66 7 1 C4.69 1 2.38 1 0 1 C0 0.67 0 0.34 0 0 Z " fill="#152D4C" transform="translate(159,141)"/>
<path d="M0 0 C2.31 0 4.62 0 7 0 C7 0.33 7 0.66 7 1 C4.69 1 2.38 1 0 1 C0 0.67 0 0.34 0 0 Z " fill="#152D4C" transform="translate(88,141)"/>
<path d="M0 0 C2.31 0 4.62 0 7 0 C7 0.33 7 0.66 7 1 C4.69 1 2.38 1 0 1 C0 0.67 0 0.34 0 0 Z " fill="#182D46" transform="translate(197,133)"/>
<path d="M0 0 C2.31 0 4.62 0 7 0 C7 0.33 7 0.66 7 1 C4.69 1 2.38 1 0 1 C0 0.67 0 0.34 0 0 Z " fill="#172B4F" transform="translate(49,133)"/>
<path d="M0 0 C2.31 0 4.62 0 7 0 C7 0.33 7 0.66 7 1 C4.69 1 2.38 1 0 1 C0 0.67 0 0.34 0 0 Z " fill="#172D47" transform="translate(82,126)"/>
<path d="M0 0 C2.31 0 4.62 0 7 0 C7 0.33 7 0.66 7 1 C4.69 1 2.38 1 0 1 C0 0.67 0 0.34 0 0 Z " fill="#142E4A" transform="translate(163,105)"/>
<path d="M0 0 C2.31 0 4.62 0 7 0 C7 0.33 7 0.66 7 1 C4.69 1 2.38 1 0 1 C0 0.67 0 0.34 0 0 Z " fill="#142E49" transform="translate(175,67)"/>
<path d="M0 0 C1.65 0.33 3.3 0.66 5 1 C5 1.33 5 1.66 5 2 C3.02 2 1.04 2 -1 2 C-0.67 1.34 -0.34 0.68 0 0 Z " fill="#182C4C" transform="translate(205,16)"/>
<path d="M0 0 C2.31 0 4.62 0 7 0 C7 0.33 7 0.66 7 1 C4.69 1 2.38 1 0 1 C0 0.67 0 0.34 0 0 Z " fill="#1F2A44" transform="translate(210,16)"/>
<path d="M0 0 C2.31 0 4.62 0 7 0 C7 0.33 7 0.66 7 1 C4.69 1 2.38 1 0 1 C0 0.67 0 0.34 0 0 Z " fill="#162B4B" transform="translate(196,11)"/>
<path d="M0 0 C1.98 0 3.96 0 6 0 C6 0.33 6 0.66 6 1 C4.02 1 2.04 1 0 1 C0 0.67 0 0.34 0 0 Z " fill="#152D4E" transform="translate(244,209)"/>
<path d="M0 0 C1.98 0 3.96 0 6 0 C6 0.33 6 0.66 6 1 C4.02 1 2.04 1 0 1 C0 0.67 0 0.34 0 0 Z " fill="#1B2B48" transform="translate(4,209)"/>
<path d="M0 0 C1.98 0 3.96 0 6 0 C6 0.33 6 0.66 6 1 C4.02 1 2.04 1 0 1 C0 0.67 0 0.34 0 0 Z " fill="#152E4B" transform="translate(174,165)"/>
<path d="M0 0 C0.33 0.66 0.66 1.32 1 2 C-0.65 2 -2.3 2 -4 2 C-2.68 1.34 -1.36 0.68 0 0 Z " fill="#182D47" transform="translate(30,165)"/>
<path d="M0 0 C1.98 0 3.96 0 6 0 C6 0.33 6 0.66 6 1 C4.02 1 2.04 1 0 1 C0 0.67 0 0.34 0 0 Z " fill="#172D47" transform="translate(178,142)"/>
<path d="M0 0 C1.98 0 3.96 0 6 0 C6 0.33 6 0.66 6 1 C4.02 1 2.04 1 0 1 C0 0.67 0 0.34 0 0 Z " fill="#162D4A" transform="translate(151,126)"/>
<path d="M0 0 C1.98 0 3.96 0 6 0 C6 0.33 6 0.66 6 1 C4.02 1 2.04 1 0 1 C0 0.67 0 0.34 0 0 Z " fill="#192C45" transform="translate(97,126)"/>
<path d="M0 0 C1.98 0 3.96 0 6 0 C6 0.33 6 0.66 6 1 C4.02 1 2.04 1 0 1 C0 0.67 0 0.34 0 0 Z " fill="#122D4A" transform="translate(160,120)"/>
<path d="M0 0 C1.98 0 3.96 0 6 0 C6 0.33 6 0.66 6 1 C4.02 1 2.04 1 0 1 C0 0.67 0 0.34 0 0 Z " fill="#182B4D" transform="translate(88,120)"/>
<path d="M0 0 C1.98 0 3.96 0 6 0 C6 0.33 6 0.66 6 1 C4.02 1 2.04 1 0 1 C0 0.67 0 0.34 0 0 Z " fill="#152D4B" transform="translate(84,105)"/>
<path d="M0 0 C1.98 0 3.96 0 6 0 C6 0.33 6 0.66 6 1 C4.02 1 2.04 1 0 1 C0 0.67 0 0.34 0 0 Z " fill="#172D47" transform="translate(166,99)"/>
<path d="M0 0 C1.98 0 3.96 0 6 0 C6 0.33 6 0.66 6 1 C4.02 1 2.04 1 0 1 C0 0.67 0 0.34 0 0 Z " fill="#1B2D41" transform="translate(122,33)"/>
<path d="M0 0 C1.32 0.33 2.64 0.66 4 1 C2.68 1 1.36 1 0 1 C0 0.67 0 0.34 0 0 Z " fill="#172D4D" transform="translate(196,18)"/>
<path d="M0 0 C0.33 0 0.66 0 1 0 C1 1.65 1 3.3 1 5 C0.67 5 0.34 5 0 5 C0 3.35 0 1.7 0 0 Z " fill="#152C52" transform="translate(71,230)"/>
<path d="M0 0 C1.65 0 3.3 0 5 0 C5 0.33 5 0.66 5 1 C3.35 1 1.7 1 0 1 C0 0.67 0 0.34 0 0 Z " fill="#152E4A" transform="translate(44,230)"/>
<path d="M0 0 C1.65 0 3.3 0 5 0 C5 0.33 5 0.66 5 1 C3.35 1 1.7 1 0 1 C0 0.67 0 0.34 0 0 Z " fill="#142D4D" transform="translate(245,223)"/>
<path d="M0 0 C0.66 0.66 1.32 1.32 2 2 C1.34 2.66 0.68 3.32 0 4 C0 2.68 0 1.36 0 0 Z " fill="#172C4B" transform="translate(37,218)"/>
<path d="M0 0 C0.66 0 1.32 0 2 0 C1.67 0.99 1.34 1.98 1 3 C0.67 2.01 0.34 1.02 0 0 Z " fill="#162D4B" transform="translate(176,212)"/>
<path d="M0 0 C1.65 0 3.3 0 5 0 C5 0.33 5 0.66 5 1 C3.35 1 1.7 1 0 1 C0 0.67 0 0.34 0 0 Z " fill="#1A2C45" transform="translate(233,209)"/>
<path d="M0 0 C1.65 0 3.3 0 5 0 C5 0.33 5 0.66 5 1 C3.35 1 1.7 1 0 1 C0 0.67 0 0.34 0 0 Z " fill="#182C4B" transform="translate(162,209)"/>
<path d="M0 0 C1.65 0 3.3 0 5 0 C5 0.33 5 0.66 5 1 C3.35 1 1.7 1 0 1 C0 0.67 0 0.34 0 0 Z " fill="#1D294E" transform="translate(80,209)"/>
<path d="M0 0 C1.65 0 3.3 0 5 0 C5 0.33 5 0.66 5 1 C3.35 1 1.7 1 0 1 C0 0.67 0 0.34 0 0 Z " fill="#192C46" transform="translate(238,180)"/>
<path d="M0 0 C1.65 0 3.3 0 5 0 C5 0.33 5 0.66 5 1 C3.35 1 1.7 1 0 1 C0 0.67 0 0.34 0 0 Z " fill="#1B2B4C" transform="translate(223,166)"/>
<path d="M0 0 C1.65 0 3.3 0 5 0 C5 0.33 5 0.66 5 1 C3.35 1 1.7 1 0 1 C0 0.67 0 0.34 0 0 Z " fill="#182C4B" transform="translate(74,165)"/>
<path d="M0 0 C1.65 0 3.3 0 5 0 C5 0.33 5 0.66 5 1 C3.35 1 1.7 1 0 1 C0 0.67 0 0.34 0 0 Z " fill="#152D4E" transform="translate(181,163)"/>
<path d="M0 0 C1.65 0 3.3 0 5 0 C5 0.33 5 0.66 5 1 C3.35 1 1.7 1 0 1 C0 0.67 0 0.34 0 0 Z " fill="#152E4B" transform="translate(68,163)"/>
<path d="M0 0 C1.65 0 3.3 0 5 0 C5 0.33 5 0.66 5 1 C3.35 1 1.7 1 0 1 C0 0.67 0 0.34 0 0 Z " fill="#152D4E" transform="translate(176,162)"/>
<path d="M0 0 C1.65 0 3.3 0 5 0 C5 0.33 5 0.66 5 1 C3.35 1 1.7 1 0 1 C0 0.67 0 0.34 0 0 Z " fill="#182C4B" transform="translate(73,162)"/>
<path d="M0 0 C1.65 0 3.3 0 5 0 C5 0.33 5 0.66 5 1 C3.35 1 1.7 1 0 1 C0 0.67 0 0.34 0 0 Z " fill="#152F47" transform="translate(181,146)"/>
<path d="M0 0 C1.65 0 3.3 0 5 0 C5 0.33 5 0.66 5 1 C3.35 1 1.7 1 0 1 C0 0.67 0 0.34 0 0 Z " fill="#172D48" transform="translate(170,144)"/>
<path d="M0 0 C1.65 0 3.3 0 5 0 C5 0.33 5 0.66 5 1 C3.35 1 1.7 1 0 1 C0 0.67 0 0.34 0 0 Z " fill="#172C4C" transform="translate(70,142)"/>
<path d="M0 0 C1.65 0 3.3 0 5 0 C5 0.33 5 0.66 5 1 C3.35 1 1.7 1 0 1 C0 0.67 0 0.34 0 0 Z " fill="#162C45" transform="translate(166,121)"/>
<path d="M0 0 C1.65 0 3.3 0 5 0 C5 0.33 5 0.66 5 1 C3.35 1 1.7 1 0 1 C0 0.67 0 0.34 0 0 Z " fill="#142D50" transform="translate(184,109)"/>
<path d="M0 0 C1.65 0 3.3 0 5 0 C5 0.33 5 0.66 5 1 C3.35 1 1.7 1 0 1 C0 0.67 0 0.34 0 0 Z " fill="#1B284F" transform="translate(65,109)"/>
<path d="M0 0 C1.65 0 3.3 0 5 0 C5 0.33 5 0.66 5 1 C3.35 1 1.7 1 0 1 C0 0.67 0 0.34 0 0 Z " fill="#182B4C" transform="translate(130,108)"/>
<path d="M0 0 C1.65 0 3.3 0 5 0 C5 0.33 5 0.66 5 1 C3.35 1 1.7 1 0 1 C0 0.67 0 0.34 0 0 Z " fill="#142D4E" transform="translate(103,105)"/>
<path d="M0 0 C1.65 0 3.3 0 5 0 C5 0.33 5 0.66 5 1 C3.35 1 1.7 1 0 1 C0 0.67 0 0.34 0 0 Z " fill="#1B2B4A" transform="translate(172,100)"/>
<path d="M0 0 C1.32 0.33 2.64 0.66 4 1 C2.68 1.33 1.36 1.66 0 2 C0 1.34 0 0.68 0 0 Z " fill="#142E4A" transform="translate(151,99)"/>
<path d="M0 0 C1.65 0 3.3 0 5 0 C5 0.33 5 0.66 5 1 C3.35 1 1.7 1 0 1 C0 0.67 0 0.34 0 0 Z " fill="#192D45" transform="translate(129,90)"/>
<path d="M0 0 C1.32 0.33 2.64 0.66 4 1 C3.01 1.33 2.02 1.66 1 2 C0.67 1.34 0.34 0.68 0 0 Z " fill="#172D4A" transform="translate(156,46)"/>
<path d="M0 0 C1.65 0 3.3 0 5 0 C5 0.33 5 0.66 5 1 C3.35 1 1.7 1 0 1 C0 0.67 0 0.34 0 0 Z " fill="#182C49" transform="translate(164,32)"/>
<path d="M0 0 C1.65 0 3.3 0 5 0 C5 0.33 5 0.66 5 1 C3.35 1 1.7 1 0 1 C0 0.67 0 0.34 0 0 Z " fill="#182D49" transform="translate(147,29)"/>
<path d="M0 0 C1.65 0 3.3 0 5 0 C5 0.33 5 0.66 5 1 C3.35 1 1.7 1 0 1 C0 0.67 0 0.34 0 0 Z " fill="#172B4E" transform="translate(165,3)"/>
<path d="M0 0 C0.66 0 1.32 0 2 0 C2 0.66 2 1.32 2 2 C1.34 2 0.68 2 0 2 C0 1.34 0 0.68 0 0 Z " fill="#152F47" transform="translate(180,219)"/>
<path d="M0 0 C0.66 0 1.32 0 2 0 C2 0.66 2 1.32 2 2 C1.34 2 0.68 2 0 2 C0 1.34 0 0.68 0 0 Z " fill="#11304A" transform="translate(184,212)"/>
<path d="M0 0 C4 1 4 1 4 1 Z " fill="#152E4C" transform="translate(63,164)"/>
<path d="M0 0 C4 1 4 1 4 1 Z " fill="#182D44" transform="translate(213,154)"/>
<path d="M0 0 C4 1 4 1 4 1 Z " fill="#162D4B" transform="translate(41,153)"/>
<path d="M0 0 C4 1 4 1 4 1 Z " fill="#152D4C" transform="translate(49,151)"/>
<path d="M0 0 C4 1 4 1 4 1 Z " fill="#162D4A" transform="translate(200,147)"/>
<path d="M0 0 C4 1 4 1 4 1 Z " fill="#192D47" transform="translate(186,147)"/>
<path d="M0 0 C4 1 4 1 4 1 Z " fill="#142D4D" transform="translate(63,147)"/>
<path d="M0 0 C4 1 4 1 4 1 Z " fill="#152E48" transform="translate(68,146)"/>
<path d="M0 0 C4 1 4 1 4 1 Z " fill="#162B52" transform="translate(177,145)"/>
<path d="M0 0 C4 1 4 1 4 1 Z " fill="#172D4C" transform="translate(73,145)"/>
<path d="M0 0 C4 1 4 1 4 1 Z " fill="#182D46" transform="translate(79,144)"/>
<path d="M0 0 C4 1 4 1 4 1 Z " fill="#172E46" transform="translate(184,143)"/>
<path d="M0 0 C4 1 4 1 4 1 Z " fill="#142F49" transform="translate(193,132)"/>
<path d="M0 0 C4 1 4 1 4 1 Z " fill="#1D2B48" transform="translate(185,130)"/>
<path d="M0 0 C4 1 4 1 4 1 Z " fill="#113143" transform="translate(65,130)"/>
<path d="M0 0 C4 1 4 1 4 1 Z " fill="#172D4A" transform="translate(181,129)"/>
<path d="M0 0 C4 1 4 1 4 1 Z " fill="#152E49" transform="translate(77,127)"/>
<path d="M0 0 C4 1 4 1 4 1 Z " fill="#172C4D" transform="translate(91,125)"/>
<path d="M0 0 C4 1 4 1 4 1 Z " fill="#192C4B" transform="translate(66,125)"/>
<path d="M0 0 C4 1 4 1 4 1 Z " fill="#152B4B" transform="translate(172,122)"/>
<path d="M0 0 C4 1 4 1 4 1 Z " fill="#162D49" transform="translate(78,122)"/>
<path d="M0 0 C4 1 4 1 4 1 Z " fill="#182E43" transform="translate(83,121)"/>
<path d="M0 0 C4 1 4 1 4 1 Z " fill="#182C4A" transform="translate(147,120)"/>
<path d="M0 0 C4 1 4 1 4 1 Z " fill="#152D4E" transform="translate(103,120)"/>
<path d="M0 0 C4 1 4 1 4 1 Z " fill="#152E48" transform="translate(125,115)"/>
<path d="M0 0 C4 1 4 1 4 1 Z " fill="#162D4A" transform="translate(180,108)"/>
<path d="M0 0 C4 1 4 1 4 1 Z " fill="#142E4B" transform="translate(124,108)"/>
<path d="M0 0 C4 1 4 1 4 1 Z " fill="#182B49" transform="translate(70,108)"/>
<path d="M0 0 C0.99 0.33 1.98 0.66 3 1 C2.01 1 1.02 1 0 1 C0 0.67 0 0.34 0 0 Z " fill="#152E4B" transform="translate(112,100)"/>
<path d="M0 0 C4 1 4 1 4 1 Z " fill="#182E49" transform="translate(77,100)"/>
<path d="M0 0 C4 1 4 1 4 1 Z " fill="#1A2C47" transform="translate(82,99)"/>
<path d="M0 0 C4 1 4 1 4 1 Z " fill="#1D2A46" transform="translate(171,84)"/>
<path d="M0 0 C4 1 4 1 4 1 Z " fill="#172C4B" transform="translate(149,84)"/>
<path d="M0 0 C4 1 4 1 4 1 Z " fill="#1B2A4E" transform="translate(108,83)"/>
<path d="M0 0 C4 1 4 1 4 1 Z " fill="#172D46" transform="translate(90,83)"/>
<path d="M0 0 C1.485 0.99 1.485 0.99 3 2 C2.01 2 1.02 2 0 2 C0 1.34 0 0.68 0 0 Z " fill="#152E4A" transform="translate(162,56)"/>
<path d="M0 0 C4 1 4 1 4 1 Z " fill="#1A2C46" transform="translate(157,55)"/>
<path d="M0 0 C4 1 4 1 4 1 Z " fill="#192C4A" transform="translate(177,48)"/>
<path d="M0 0 C4 1 4 1 4 1 Z " fill="#172C4C" transform="translate(173,34)"/>
<path d="M0 0 C4 1 4 1 4 1 Z " fill="#1F294C" transform="translate(169,33)"/>
<path d="M0 0 C4 1 4 1 4 1 Z " fill="#1A2D43" transform="translate(153,30)"/>
<path d="M0 0 C4 1 4 1 4 1 Z " fill="#132E49" transform="translate(165,11)"/>
<path d="M0 0 C4 1 4 1 4 1 Z " fill="#182B47" transform="translate(170,4)"/>
<path d="M0 0 C3 1 3 1 3 1 Z " fill="#152E4C" transform="translate(212,238)"/>
<path d="M0 0 C3 1 3 1 3 1 Z " fill="#142E4E" transform="translate(205,238)"/>
<path d="M0 0 C3 1 3 1 3 1 Z " fill="#152E4A" transform="translate(48,238)"/>
<path d="M0 0 C0.66 0.66 1.32 1.32 2 2 C1.34 2 0.68 2 0 2 C0 1.34 0 0.68 0 0 Z " fill="#122F4B" transform="translate(202,235)"/>
<path d="" fill="#162C4F" transform="translate(0,0)"/>
<path d="" fill="#162C51" transform="translate(0,0)"/>
<path d="" fill="#182C49" transform="translate(0,0)"/>
<path d="" fill="#152D45" transform="translate(0,0)"/>
<path d="" fill="#152F48" transform="translate(0,0)"/>
<path d="" fill="#152E47" transform="translate(0,0)"/>
<path d="M0 0 C0.99 0.495 0.99 0.495 2 1 C1.01 1.495 1.01 1.495 0 2 C0 1.34 0 0.68 0 0 Z " fill="#172D4C" transform="translate(202,227)"/>
<path d="M0 0 C3 1 3 1 3 1 Z " fill="#172D4D" transform="translate(205,225)"/>
<path d="M0 0 C3 1 3 1 3 1 Z " fill="#162C4A" transform="translate(159,225)"/>
<path d="M0 0 C3 1 3 1 3 1 Z " fill="#152E4C" transform="translate(96,225)"/>
<path d="M0 0 C3 1 3 1 3 1 Z " fill="#142D4E" transform="translate(82,225)"/>
<path d="M0 0 C3 1 3 1 3 1 Z " fill="#152E4C" transform="translate(48,225)"/>
<path d="M0 0 C3 1 3 1 3 1 Z " fill="#152E4C" transform="translate(8,225)"/>
<path d="M0 0 C3 1 3 1 3 1 Z " fill="#152D4C" transform="translate(231,223)"/>
<path d="M0 0 C3 1 3 1 3 1 Z " fill="#152E4A" transform="translate(160,223)"/>
<path d="M0 0 C3 1 3 1 3 1 Z " fill="#152E4B" transform="translate(152,223)"/>
<path d="M0 0 C3 1 3 1 3 1 Z " fill="#172D4C" transform="translate(84,223)"/>
<path d="M0 0 C3 1 3 1 3 1 Z " fill="#152E4C" transform="translate(9,223)"/>
<path d="M0 0 C3 1 3 1 3 1 Z " fill="#152E4A" transform="translate(3,223)"/>
<path d="M0 0 C0.66 0.66 1.32 1.32 2 2 C1.34 2 0.68 2 0 2 C0 1.34 0 0.68 0 0 Z " fill="#152E4C" transform="translate(157,220)"/>
<path d="M0 0 C0.99 0.495 0.99 0.495 2 1 C1.01 1.495 1.01 1.495 0 2 C0 1.34 0 0.68 0 0 Z " fill="#1A2D44" transform="translate(75,212)"/>
<path d="M0 0 C3 1 3 1 3 1 Z " fill="#192C48" transform="translate(71,209)"/>
<path d="M0 0 C3 1 3 1 3 1 Z " fill="#152E4C" transform="translate(187,164)"/>
<path d="M0 0 C3 1 3 1 3 1 Z " fill="#1F2A42" transform="translate(37,154)"/>
<path d="M0 0 C3 1 3 1 3 1 Z " fill="#182D48" transform="translate(209,153)"/>
<path d="M0 0 C3 1 3 1 3 1 Z " fill="#172D48" transform="translate(46,152)"/>
<path d="M0 0 C3 1 3 1 3 1 Z " fill="#172C4E" transform="translate(201,151)"/>
<path d="M0 0 C3 1 3 1 3 1 Z " fill="#172C4E" transform="translate(198,150)"/>
<path d="M0 0 C3 1 3 1 3 1 Z " fill="#172D4C" transform="translate(53,150)"/>
<path d="M0 0 C3 1 3 1 3 1 Z " fill="#172D4C" transform="translate(56,149)"/>
<path d="M0 0 C3 1 3 1 3 1 Z " fill="#1A2D42" transform="translate(43,149)"/>
<path d="M0 0 C3 1 3 1 3 1 Z " fill="#172C4D" transform="translate(204,148)"/>
<path d="M0 0 C3 1 3 1 3 1 Z " fill="#172D46" transform="translate(191,148)"/>
<path d="M0 0 C3 1 3 1 3 1 Z " fill="#142F4B" transform="translate(50,147)"/>
<path d="M0 0 C3 1 3 1 3 1 Z " fill="#172C50" transform="translate(197,146)"/>
<path d="M0 0 C3 1 3 1 3 1 Z " fill="#152D4A" transform="translate(54,146)"/>
<path d="M0 0 C3 1 3 1 3 1 Z " fill="#172D49" transform="translate(193,145)"/>
<path d="M0 0 C3 1 3 1 3 1 Z " fill="#172C4E" transform="translate(189,144)"/>
<path d="M0 0 C3 1 3 1 3 1 Z " fill="#182D48" transform="translate(66,143)"/>
<path d="M0 0 C3 1 3 1 3 1 Z " fill="#182D44" transform="translate(57,132)"/>
<path d="M0 0 C3 1 3 1 3 1 Z " fill="#1C2B47" transform="translate(189,131)"/>
<path d="M0 0 C3 1 3 1 3 1 Z " fill="#192B4E" transform="translate(62,131)"/>
<path d="M0 0 C3 1 3 1 3 1 Z " fill="#152E4C" transform="translate(110,129)"/>
<path d="M0 0 C3 1 3 1 3 1 Z " fill="#152F45" transform="translate(69,129)"/>
<path d="M0 0 C3 1 3 1 3 1 Z " fill="#172D46" transform="translate(178,128)"/>
<path d="M0 0 C3 1 3 1 3 1 Z " fill="#182C48" transform="translate(73,128)"/>
<path d="M0 0 C3 1 3 1 3 1 Z " fill="#1C2B46" transform="translate(192,127)"/>
<path d="M0 0 C3 1 3 1 3 1 Z " fill="#0F2F4B" transform="translate(173,127)"/>
<path d="M0 0 C3 1 3 1 3 1 Z " fill="#122F4B" transform="translate(147,127)"/>
<path d="M0 0 C3 1 3 1 3 1 Z " fill="#162D4D" transform="translate(104,127)"/>
<path d="M0 0 C3 1 3 1 3 1 Z " fill="#1A2C48" transform="translate(59,127)"/>
<path d="M0 0 C3 1 3 1 3 1 Z " fill="#1A2C48" transform="translate(188,126)"/>
<path d="M0 0 C3 1 3 1 3 1 Z " fill="#192B4F" transform="translate(63,126)"/>
<path d="M0 0 C3 1 3 1 3 1 Z " fill="#1A2C48" transform="translate(184,125)"/>
<path d="M0 0 C3 1 3 1 3 1 Z " fill="#1A2A48" transform="translate(159,125)"/>
<path d="M0 0 C3 1 3 1 3 1 Z " fill="#192D46" transform="translate(176,123)"/>
<path d="M0 0 C3 1 3 1 3 1 Z " fill="#1A2C46" transform="translate(144,121)"/>
<path d="M0 0 C3 1 3 1 3 1 Z " fill="#172D4C" transform="translate(107,121)"/>
<path d="" fill="#1D2A46" transform="translate(0,0)"/>
<path d="M0 0 C3 1 3 1 3 1 Z " fill="#162D4D" transform="translate(118,108)"/>
<path d="M0 0 C3 1 3 1 3 1 Z " fill="#133043" transform="translate(176,107)"/>
<path d="M0 0 C3 1 3 1 3 1 Z " fill="#172D47" transform="translate(75,107)"/>
<path d="M0 0 C3 1 3 1 3 1 Z " fill="#1B2D41" transform="translate(171,106)"/>
<path d="M0 0 C3 1 3 1 3 1 Z " fill="#152E4C" transform="translate(143,106)"/>
<path d="M0 0 C3 1 3 1 3 1 Z " fill="#162E47" transform="translate(108,106)"/>
<path d="M0 0 C3 1 3 1 3 1 Z " fill="#1A2D40" transform="translate(80,106)"/>
<path d="M0 0 C3 1 3 1 3 1 Z " fill="#152E4C" transform="translate(140,105)"/>
<path d="M0 0 C3 1 3 1 3 1 Z " fill="#1E2B43" transform="translate(177,101)"/>
<path d="M0 0 C3 1 3 1 3 1 Z " fill="#182D46" transform="translate(108,99)"/>
<path d="M0 0 C3 1 3 1 3 1 Z " fill="#142E4B" transform="translate(139,87)"/>
<path d="M0 0 C3 1 3 1 3 1 Z " fill="#152D4E" transform="translate(145,85)"/>
<path d="M0 0 C3 1 3 1 3 1 Z " fill="#182E41" transform="translate(112,84)"/>
<path d="M0 0 C3 1 3 1 3 1 Z " fill="#182D45" transform="translate(87,84)"/>
<path d="M0 0 C3 1 3 1 3 1 Z " fill="#132E4B" transform="translate(167,75)"/>
<path d="M0 0 C3 1 3 1 3 1 Z " fill="#192B4B" transform="translate(119,62)"/>
<path d="M0 0 C3 1 3 1 3 1 Z " fill="#1C2B46" transform="translate(151,61)"/>
<path d="M0 0 C3 1 3 1 3 1 Z " fill="#1B2B4A" transform="translate(116,61)"/>
<path d="M0 0 C3 1 3 1 3 1 Z " fill="#192C46" transform="translate(159,58)"/>
<path d="M0 0 C3 1 3 1 3 1 Z " fill="#1C2C42" transform="translate(184,56)"/>
<path d="M0 0 C3 1 3 1 3 1 Z " fill="#152E4B" transform="translate(166,56)"/>
<path d="M0 0 C3 1 3 1 3 1 Z " fill="#152E4A" transform="translate(129,51)"/>
<path d="M0 0 C3 1 3 1 3 1 Z " fill="#1C2B4A" transform="translate(109,51)"/>
<path d="M0 0 C3 1 3 1 3 1 Z " fill="#1A2C48" transform="translate(173,49)"/>
<path d="M0 0 C3 1 3 1 3 1 Z " fill="#182D46" transform="translate(152,45)"/>
<path d="M0 0 C3 1 3 1 3 1 Z " fill="#172D46" transform="translate(148,44)"/>
<path d="M0 0 C3 1 3 1 3 1 Z " fill="#1A2B4C" transform="translate(129,34)"/>
<path d="M0 0 C3 1 3 1 3 1 Z " fill="#172E48" transform="translate(159,31)"/>
<path d="M0 0 C3 1 3 1 3 1 Z " fill="#1B2C46" transform="translate(123,26)"/>
<path d="M0 0 C3 1 3 1 3 1 Z " fill="#1A2A50" transform="translate(206,25)"/>
<path d="M0 0 C3 1 3 1 3 1 Z " fill="#152E47" transform="translate(188,21)"/>
<path d="M0 0 C3 1 3 1 3 1 Z " fill="#132D49" transform="translate(160,10)"/>
<path d="M0 0 C3 1 3 1 3 1 Z " fill="#152F48" transform="translate(188,9)"/>
<path d="M0 0 C3 1 3 1 3 1 Z " fill="#182E42" transform="translate(180,8)"/>
<path d="" fill="#1C2D42" transform="translate(0,0)"/>
<path d="M0 0 C2 1 2 1 2 1 Z " fill="#152E4C" transform="translate(245,238)"/>
<path d="M0 0 C2 1 2 1 2 1 Z " fill="#172D4A" transform="translate(83,238)"/>
<path d="M0 0 C2 1 2 1 2 1 Z " fill="#172C50" transform="translate(76,238)"/>
<path d="M0 0 C2 1 2 1 2 1 Z " fill="#152E4C" transform="translate(42,238)"/>
<path d="M0 0 C2 1 2 1 2 1 Z " fill="#142E4B" transform="translate(94,235)"/>
<path d="" fill="#162D4E" transform="translate(0,0)"/>
<path d="" fill="#152F46" transform="translate(0,0)"/>
<path d="" fill="#142F4C" transform="translate(0,0)"/>
<path d="" fill="#1A2B4D" transform="translate(0,0)"/>
<path d="M0 0 C2 1 2 1 2 1 Z " fill="#152E4C" transform="translate(245,225)"/>
<path d="M0 0 C2 1 2 1 2 1 Z " fill="#152E4C" transform="translate(212,225)"/>
<path d="M0 0 C2 1 2 1 2 1 Z " fill="#162D4A" transform="translate(76,225)"/>
<path d="M0 0 C2 1 2 1 2 1 Z " fill="#152E4C" transform="translate(42,225)"/>
<path d="M0 0 C2 1 2 1 2 1 Z " fill="#142F4B" transform="translate(238,223)"/>
<path d="M0 0 C2 1 2 1 2 1 Z " fill="#182D46" transform="translate(184,223)"/>
<path d="M0 0 C2 1 2 1 2 1 Z " fill="#152F46" transform="translate(166,223)"/>
<path d="M0 0 C2 1 2 1 2 1 Z " fill="#152E4C" transform="translate(139,223)"/>
<path d="M0 0 C2 1 2 1 2 1 Z " fill="#162D4B" transform="translate(79,223)"/>
<path d="M0 0 C2 1 2 1 2 1 Z " fill="#172C4B" transform="translate(72,223)"/>
<path d="M0 0 C2 1 2 1 2 1 Z " fill="#172D47" transform="translate(66,223)"/>
<path d="M0 0 C2 1 2 1 2 1 Z " fill="#152D4E" transform="translate(42,223)"/>
<path d="M0 0 C2 1 2 1 2 1 Z " fill="#172D4C" transform="translate(15,223)"/>
<path d="M0 0 C2 1 2 1 2 1 Z " fill="#162D4C" transform="translate(77,222)"/>
<path d="M0 0 C2 1 2 1 2 1 Z " fill="#152E4A" transform="translate(1,222)"/>
<path d="" fill="#152E4B" transform="translate(0,0)"/>
<path d="" fill="#172F41" transform="translate(0,0)"/>
<path d="" fill="#172B53" transform="translate(0,0)"/>
<path d="" fill="#152D4F" transform="translate(0,0)"/>
<path d="" fill="#1F2C3E" transform="translate(0,0)"/>
<path d="" fill="#152E4A" transform="translate(0,0)"/>
<path d="M0 0 C2 1 2 1 2 1 Z " fill="#162E49" transform="translate(231,210)"/>
<path d="M0 0 C2 1 2 1 2 1 Z " fill="#162E49" transform="translate(223,210)"/>
<path d="M0 0 C2 1 2 1 2 1 Z " fill="#162E47" transform="translate(167,210)"/>
<path d="M0 0 C2 1 2 1 2 1 Z " fill="#1B2B49" transform="translate(160,210)"/>
<path d="M0 0 C2 1 2 1 2 1 Z " fill="#1D2B44" transform="translate(138,210)"/>
<path d="M0 0 C2 1 2 1 2 1 Z " fill="#1A2D44" transform="translate(78,210)"/>
<path d="M0 0 C2 1 2 1 2 1 Z " fill="#1D2A4A" transform="translate(10,210)"/>
<path d="M0 0 C2 1 2 1 2 1 Z " fill="#1E2A47" transform="translate(2,210)"/>
<path d="M0 0 C2 1 2 1 2 1 Z " fill="#1C2C46" transform="translate(188,209)"/>
<path d="M0 0 C2 1 2 1 2 1 Z " fill="#1D2B43" transform="translate(180,209)"/>
<path d="M0 0 C2 1 2 1 2 1 Z " fill="#1C2B47" transform="translate(172,209)"/>
<path d="M0 0 C2 1 2 1 2 1 Z " fill="#202B3E" transform="translate(144,209)"/>
<path d="M0 0 C2 1 2 1 2 1 Z " fill="#1F2C3A" transform="translate(140,209)"/>
<path d="M0 0 C2 1 2 1 2 1 Z " fill="#142E4E" transform="translate(131,209)"/>
<path d="M0 0 C2 1 2 1 2 1 Z " fill="#162D4D" transform="translate(61,209)"/>
<path d="M0 0 C2 1 2 1 2 1 Z " fill="#0F314C" transform="translate(43,209)"/>
<path d="M0 0 C2 1 2 1 2 1 Z " fill="#1B2C48" transform="translate(34,209)"/>
<path d="M0 0 C2 1 2 1 2 1 Z " fill="#182C4C" transform="translate(29,209)"/>
<path d="" fill="#172D49" transform="translate(0,0)"/>
<path d="" fill="#1D2A48" transform="translate(0,0)"/>
<path d="" fill="#1E2B44" transform="translate(0,0)"/>
<path d="" fill="#1F284E" transform="translate(0,0)"/>
<path d="M0 0 C2 1 2 1 2 1 Z " fill="#1B2E3D" transform="translate(228,167)"/>
<path d="" fill="#162E48" transform="translate(0,0)"/>
<path d="" fill="#162F45" transform="translate(0,0)"/>
<path d="M0 0 C2 1 2 1 2 1 Z " fill="#172E47" transform="translate(205,152)"/>
<path d="M0 0 C2 1 2 1 2 1 Z " fill="#1C2C44" transform="translate(208,149)"/>
<path d="M0 0 C2 1 2 1 2 1 Z " fill="#172C4F" transform="translate(195,149)"/>
<path d="M0 0 C2 1 2 1 2 1 Z " fill="#172D4C" transform="translate(60,148)"/>
<path d="M0 0 C2 1 2 1 2 1 Z " fill="#152E4B" transform="translate(47,148)"/>
<path d="" fill="#122F4C" transform="translate(0,0)"/>
<path d="" fill="#0F314C" transform="translate(0,0)"/>
<path d="M0 0 C2 1 2 1 2 1 Z " fill="#152E4C" transform="translate(103,145)"/>
<path d="M0 0 C2 1 2 1 2 1 Z " fill="#172D4A" transform="translate(58,145)"/>
<path d="M0 0 C2 1 2 1 2 1 Z " fill="#172D49" transform="translate(62,144)"/>
<path d="" fill="#1B2D43" transform="translate(0,0)"/>
<path d="M0 0 C2 1 2 1 2 1 Z " fill="#152E4C" transform="translate(118,133)"/>
<path d="M0 0 C2 1 2 1 2 1 Z " fill="#152E4C" transform="translate(137,131)"/>
<path d="M0 0 C2 1 2 1 2 1 Z " fill="#152E4C" transform="translate(139,130)"/>
<path d="M0 0 C2 1 2 1 2 1 Z " fill="#152E4C" transform="translate(113,130)"/>
<path d="M0 0 C2 1 2 1 2 1 Z " fill="#152E4C" transform="translate(141,129)"/>
<path d="M0 0 C2 1 2 1 2 1 Z " fill="#182D48" transform="translate(144,128)"/>
<path d="M0 0 C2 1 2 1 2 1 Z " fill="#192D45" transform="translate(108,128)"/>
<path d="M0 0 C2 1 2 1 2 1 Z " fill="#162D4C" transform="translate(181,124)"/>
<path d="M0 0 C2 1 2 1 2 1 Z " fill="#152E4C" transform="translate(113,124)"/>
<path d="M0 0 C2 1 2 1 2 1 Z " fill="#162D4A" transform="translate(71,124)"/>
<path d="M0 0 C2 1 2 1 2 1 Z " fill="#152F48" transform="translate(75,123)"/>
<path d="" fill="#182E44" transform="translate(0,0)"/>
<path d="M0 0 C2 1 2 1 2 1 Z " fill="#152F47" transform="translate(142,122)"/>
<path d="M0 0 C2 1 2 1 2 1 Z " fill="#172C4B" transform="translate(110,122)"/>
<path d="" fill="#1A2C47" transform="translate(0,0)"/>
<path d="" fill="#192D45" transform="translate(0,0)"/>
<path d="" fill="#1C2D47" transform="translate(0,0)"/>
<path d="" fill="#1F284E" transform="translate(0,0)"/>
<path d="" fill="#1D2D48" transform="translate(0,0)"/>
<path d="M0 0 C2 1 2 1 2 1 Z " fill="#152E4C" transform="translate(130,113)"/>
<path d="M0 0 C2 1 2 1 2 1 Z " fill="#1C2C43" transform="translate(190,110)"/>
<path d="M0 0 C2 1 2 1 2 1 Z " fill="#1E2C48" transform="translate(62,110)"/>
<path d="M0 0 C2 1 2 1 2 1 Z " fill="#172D4C" transform="translate(136,109)"/>
<path d="M0 0 C2 1 2 1 2 1 Z " fill="#152E4C" transform="translate(116,109)"/>
<path d="M0 0 C2 1 2 1 2 1 Z " fill="#172D4C" transform="translate(138,108)"/>
<path d="M0 0 C2 1 2 1 2 1 Z " fill="#152E4C" transform="translate(140,107)"/>
<path d="M0 0 C2 1 2 1 2 1 Z " fill="#192B4C" transform="translate(135,107)"/>
<path d="M0 0 C2 1 2 1 2 1 Z " fill="#172D4C" transform="translate(138,106)"/>
<path d="M0 0 C2 1 2 1 2 1 Z " fill="#192D43" transform="translate(184,103)"/>
<path d="M0 0 C2 1 2 1 2 1 Z " fill="#132E4C" transform="translate(181,102)"/>
<path d="" fill="#202C41" transform="translate(0,0)"/>
<path d="" fill="#192C4A" transform="translate(0,0)"/>
<path d="" fill="#22294C" transform="translate(0,0)"/>
<path d="" fill="#202A4F" transform="translate(0,0)"/>
<path d="" fill="#1D2A4D" transform="translate(0,0)"/>
<path d="M0 0 C2 1 2 1 2 1 Z " fill="#162D4C" transform="translate(125,89)"/>
<path d="M0 0 C2 1 2 1 2 1 Z " fill="#152E4A" transform="translate(137,88)"/>
<path d="M0 0 C2 1 2 1 2 1 Z " fill="#172C4D" transform="translate(123,88)"/>
<path d="M0 0 C2 1 2 1 2 1 Z " fill="#172C4F" transform="translate(121,87)"/>
<path d="M0 0 C2 1 2 1 2 1 Z " fill="#192B4E" transform="translate(81,87)"/>
<path d="M0 0 C2 1 2 1 2 1 Z " fill="#142F4C" transform="translate(142,86)"/>
<path d="M0 0 C2 1 2 1 2 1 Z " fill="#132F48" transform="translate(136,86)"/>
<path d="M0 0 C2 1 2 1 2 1 Z " fill="#1C2A4E" transform="translate(175,85)"/>
<path d="M0 0 C2 1 2 1 2 1 Z " fill="#192D45" transform="translate(116,85)"/>
<path d="M0 0 C2 1 2 1 2 1 Z " fill="#192D43" transform="translate(85,85)"/>
<path d="M0 0 C2 1 2 1 2 1 Z " fill="#152E4A" transform="translate(140,83)"/>
<path d="M0 0 C2 1 2 1 2 1 Z " fill="#162D48" transform="translate(142,82)"/>
<path d="M0 0 C2 1 2 1 2 1 Z " fill="#1A2D46" transform="translate(145,81)"/>
<path d="M0 0 C2 1 2 1 2 1 Z " fill="#172D4A" transform="translate(159,79)"/>
<path d="M0 0 C2 1 2 1 2 1 Z " fill="#1A2A50" transform="translate(161,78)"/>
<path d="" fill="#172E46" transform="translate(0,0)"/>
<path d="M0 0 C2 1 2 1 2 1 Z " fill="#1A2B4C" transform="translate(163,77)"/>
<path d="M0 0 C2 1 2 1 2 1 Z " fill="#142D4F" transform="translate(165,76)"/>
<path d="M0 0 C2 1 2 1 2 1 Z " fill="#142E4A" transform="translate(170,74)"/>
<path d="M0 0 C2 1 2 1 2 1 Z " fill="#182D49" transform="translate(172,73)"/>
<path d="M0 0 C2 1 2 1 2 1 Z " fill="#142F4B" transform="translate(130,67)"/>
<path d="M0 0 C2 1 2 1 2 1 Z " fill="#192C4D" transform="translate(127,65)"/>
<path d="M0 0 C2 1 2 1 2 1 Z " fill="#1A2B4A" transform="translate(125,64)"/>
<path d="M0 0 C2 1 2 1 2 1 Z " fill="#172D47" transform="translate(122,63)"/>
<path d="M0 0 C2 1 2 1 2 1 Z " fill="#1B2B48" transform="translate(149,62)"/>
<path d="M0 0 C2 1 2 1 2 1 Z " fill="#182E44" transform="translate(147,61)"/>
<path d="M0 0 C2 1 2 1 2 1 Z " fill="#1F2B42" transform="translate(157,59)"/>
<path d="M0 0 C2 1 2 1 2 1 Z " fill="#1A2D44" transform="translate(102,59)"/>
<path d="M0 0 C2 1 2 1 2 1 Z " fill="#172D49" transform="translate(190,58)"/>
<path d="M0 0 C2 1 2 1 2 1 Z " fill="#172D4A" transform="translate(188,57)"/>
<path d="M0 0 C2 1 2 1 2 1 Z " fill="#162D4A" transform="translate(142,57)"/>
<path d="" fill="#1B2D42" transform="translate(0,0)"/>
<path d="M0 0 C2 1 2 1 2 1 Z " fill="#1B2D40" transform="translate(139,55)"/>
<path d="M0 0 C2 1 2 1 2 1 Z " fill="#1A2C48" transform="translate(155,54)"/>
<path d="M0 0 C2 1 2 1 2 1 Z " fill="#1C2C43" transform="translate(137,54)"/>
<path d="M0 0 C2 1 2 1 2 1 Z " fill="#1A2C4A" transform="translate(135,53)"/>
<path d="M0 0 C2 1 2 1 2 1 Z " fill="#162D4B" transform="translate(103,53)"/>
<path d="" fill="#1C2B49" transform="translate(0,0)"/>
<path d="M0 0 C2 1 2 1 2 1 Z " fill="#142E50" transform="translate(133,52)"/>
<path d="M0 0 C2 1 2 1 2 1 Z " fill="#1A2B4C" transform="translate(106,52)"/>
<path d="M0 0 C2 1 2 1 2 1 Z " fill="#132E4B" transform="translate(169,51)"/>
<path d="M0 0 C2 1 2 1 2 1 Z " fill="#182C4B" transform="translate(171,50)"/>
<path d="M0 0 C2 1 2 1 2 1 Z " fill="#172E45" transform="translate(189,39)"/>
<path d="M0 0 C2 1 2 1 2 1 Z " fill="#192B4F" transform="translate(192,38)"/>
<path d="M0 0 C2 1 2 1 2 1 Z " fill="#142E4E" transform="translate(138,38)"/>
<path d="M0 0 C2 1 2 1 2 1 Z " fill="#162D49" transform="translate(136,37)"/>
<path d="" fill="#182D48" transform="translate(0,0)"/>
<path d="M0 0 C2 1 2 1 2 1 Z " fill="#1B2C42" transform="translate(134,36)"/>
<path d="M0 0 C2 1 2 1 2 1 Z " fill="#1C2B47" transform="translate(132,35)"/>
<path d="M0 0 C2 1 2 1 2 1 Z " fill="#152E49" transform="translate(177,33)"/>
<path d="M0 0 C2 1 2 1 2 1 Z " fill="#162D4F" transform="translate(193,32)"/>
<path d="M0 0 C2 1 2 1 2 1 Z " fill="#172D48" transform="translate(196,30)"/>
<path d="M0 0 C2 1 2 1 2 1 Z " fill="#1C2C44" transform="translate(198,29)"/>
<path d="M0 0 C2 1 2 1 2 1 Z " fill="#172C51" transform="translate(200,28)"/>
<path d="M0 0 C2 1 2 1 2 1 Z " fill="#192B4D" transform="translate(202,27)"/>
<path d="M0 0 C2 1 2 1 2 1 Z " fill="#182C4E" transform="translate(204,26)"/>
<path d="M0 0 C2 1 2 1 2 1 Z " fill="#1D2B44" transform="translate(140,26)"/>
<path d="M0 0 C2 1 2 1 2 1 Z " fill="#1C2B4A" transform="translate(209,24)"/>
<path d="M0 0 C2 1 2 1 2 1 Z " fill="#1A2B4E" transform="translate(214,22)"/>
<path d="M0 0 C2 1 2 1 2 1 Z " fill="#172D4E" transform="translate(195,20)"/>
<path d="M0 0 C2 1 2 1 2 1 Z " fill="#162D4B" transform="translate(191,20)"/>
<path d="" fill="#21274E" transform="translate(0,0)"/>
<path d="M0 0 C2 1 2 1 2 1 Z " fill="#172D4A" transform="translate(202,18)"/>
<path d="M0 0 C2 1 2 1 2 1 Z " fill="#1C2B47" transform="translate(174,18)"/>
<path d="M0 0 C2 1 2 1 2 1 Z " fill="#1C2B47" transform="translate(171,17)"/>
<path d="" fill="#162C4A" transform="translate(0,0)"/>
<path d="" fill="#162D45" transform="translate(0,0)"/>
<path d="M0 0 C2 1 2 1 2 1 Z " fill="#192B48" transform="translate(193,10)"/>
<path d="M0 0 C2 1 2 1 2 1 Z " fill="#1D2C40" transform="translate(157,9)"/>
<path d="M0 0 C2 1 2 1 2 1 Z " fill="#182B48" transform="translate(178,7)"/>
<path d="M0 0 C2 1 2 1 2 1 Z " fill="#172C4F" transform="translate(162,2)"/>
<path d="M0 0 C2 1 2 1 2 1 Z " fill="#172C4B" transform="translate(158,0)"/>
<path d="" fill="#162B4F" transform="translate(0,0)"/>
<path d="" fill="#182E42" transform="translate(0,0)"/>
<path d="" fill="#172B56" transform="translate(0,0)"/>
<path d="" fill="#122E52" transform="translate(0,0)"/>
<path d="" fill="#1C2C44" transform="translate(0,0)"/>
<path d="" fill="#152E4A" transform="translate(0,0)"/>
<path d="" fill="#172D4C" transform="translate(0,0)"/>
<path d="" fill="#142F4C" transform="translate(0,0)"/>
<path d="" fill="#172C50" transform="translate(0,0)"/>
<path d="" fill="#152F46" transform="translate(0,0)"/>
<path d="" fill="#152E4C" transform="translate(0,0)"/>
<path d="" fill="#1A2C4A" transform="translate(0,0)"/>
<path d="" fill="#172D4E" transform="translate(0,0)"/>
<path d="" fill="#172D4A" transform="translate(0,0)"/>
<path d="" fill="#172D4C" transform="translate(0,0)"/>
<path d="" fill="#182C4E" transform="translate(0,0)"/>
<path d="" fill="#172C50" transform="translate(0,0)"/>
<path d="" fill="#172F42" transform="translate(0,0)"/>
<path d="" fill="#1C2B48" transform="translate(0,0)"/>
<path d="" fill="#152E4A" transform="translate(0,0)"/>
<path d="" fill="#172D4C" transform="translate(0,0)"/>
<path d="" fill="#152E4A" transform="translate(0,0)"/>
<path d="" fill="#122D4D" transform="translate(0,0)"/>
<path d="" fill="#162C4B" transform="translate(0,0)"/>
<path d="" fill="#152E4A" transform="translate(0,0)"/>
<path d="" fill="#112E4D" transform="translate(0,0)"/>
<path d="" fill="#172D4A" transform="translate(0,0)"/>
<path d="" fill="#1C2B4A" transform="translate(0,0)"/>
<path d="" fill="#152E4C" transform="translate(0,0)"/>
<path d="" fill="#172D4A" transform="translate(0,0)"/>
<path d="" fill="#182C4C" transform="translate(0,0)"/>
<path d="" fill="#152E4C" transform="translate(0,0)"/>
<path d="" fill="#172D4C" transform="translate(0,0)"/>
<path d="" fill="#152E4C" transform="translate(0,0)"/>
<path d="" fill="#172D4C" transform="translate(0,0)"/>
<path d="" fill="#142D4B" transform="translate(0,0)"/>
<path d="" fill="#152E4C" transform="translate(0,0)"/>
<path d="" fill="#152D4E" transform="translate(0,0)"/>
<path d="" fill="#182D4A" transform="translate(0,0)"/>
<path d="" fill="#152E4C" transform="translate(0,0)"/>
<path d="" fill="#152E4C" transform="translate(0,0)"/>
<path d="" fill="#142F4C" transform="translate(0,0)"/>
<path d="" fill="#152E4C" transform="translate(0,0)"/>
<path d="" fill="#1D2A4C" transform="translate(0,0)"/>
<path d="" fill="#1C2C46" transform="translate(0,0)"/>
<path d="" fill="#142F4A" transform="translate(0,0)"/>
<path d="" fill="#152E4C" transform="translate(0,0)"/>
<path d="" fill="#172E46" transform="translate(0,0)"/>
<path d="" fill="#172F44" transform="translate(0,0)"/>
<path d="" fill="#153040" transform="translate(0,0)"/>
<path d="" fill="#172F40" transform="translate(0,0)"/>
<path d="" fill="#172D4C" transform="translate(0,0)"/>
<path d="" fill="#172D4C" transform="translate(0,0)"/>
<path d="" fill="#182D48" transform="translate(0,0)"/>
<path d="" fill="#172D4A" transform="translate(0,0)"/>
<path d="" fill="#152E4A" transform="translate(0,0)"/>
<path d="" fill="#152D4E" transform="translate(0,0)"/>
<path d="" fill="#152F48" transform="translate(0,0)"/>
<path d="" fill="#182D4A" transform="translate(0,0)"/>
<path d="" fill="#152F48" transform="translate(0,0)"/>
<path d="" fill="#152E4C" transform="translate(0,0)"/>
<path d="" fill="#152E4C" transform="translate(0,0)"/>
<path d="" fill="#172D4C" transform="translate(0,0)"/>
<path d="" fill="#172D4C" transform="translate(0,0)"/>
<path d="" fill="#172D4A" transform="translate(0,0)"/>
<path d="" fill="#172D4C" transform="translate(0,0)"/>
<path d="" fill="#1A2C48" transform="translate(0,0)"/>
<path d="" fill="#172D4A" transform="translate(0,0)"/>
<path d="" fill="#172D4A" transform="translate(0,0)"/>
<path d="" fill="#15313E" transform="translate(0,0)"/>
<path d="" fill="#152E4A" transform="translate(0,0)"/>
<path d="" fill="#152F46" transform="translate(0,0)"/>
<path d="" fill="#152E4A" transform="translate(0,0)"/>
<path d="" fill="#1F2B40" transform="translate(0,0)"/>
<path d="" fill="#172D4A" transform="translate(0,0)"/>
<path d="" fill="#172D4A" transform="translate(0,0)"/>
<path d="" fill="#172D4A" transform="translate(0,0)"/>
<path d="" fill="#152E4A" transform="translate(0,0)"/>
<path d="" fill="#152E4C" transform="translate(0,0)"/>
<path d="" fill="#152E4C" transform="translate(0,0)"/>
<path d="" fill="#172D4A" transform="translate(0,0)"/>
<path d="" fill="#172D4E" transform="translate(0,0)"/>
<path d="" fill="#172C50" transform="translate(0,0)"/>
<path d="" fill="#172D4E" transform="translate(0,0)"/>
<path d="" fill="#142F4C" transform="translate(0,0)"/>
<path d="" fill="#142F4A" transform="translate(0,0)"/>
<path d="" fill="#182D4A" transform="translate(0,0)"/>
<path d="" fill="#142F48" transform="translate(0,0)"/>
<path d="" fill="#152D4E" transform="translate(0,0)"/>
<path d="" fill="#152D4E" transform="translate(0,0)"/>
<path d="" fill="#122F50" transform="translate(0,0)"/>
<path d="" fill="#172D4A" transform="translate(0,0)"/>
<path d="" fill="#152E4C" transform="translate(0,0)"/>
<path d="" fill="#1C2C46" transform="translate(0,0)"/>
<path d="" fill="#142E4E" transform="translate(0,0)"/>
<path d="" fill="#152D50" transform="translate(0,0)"/>
<path d="" fill="#172D4C" transform="translate(0,0)"/>
<path d="" fill="#172B54" transform="translate(0,0)"/>
<path d="" fill="#142E4E" transform="translate(0,0)"/>
<path d="" fill="#1A2C48" transform="translate(0,0)"/>
<path d="" fill="#1C2B4C" transform="translate(0,0)"/>
<path d="" fill="#182D46" transform="translate(0,0)"/>
<path d="" fill="#172E48" transform="translate(0,0)"/>
<path d="" fill="#182B50" transform="translate(0,0)"/>
<path d="" fill="#1A2C48" transform="translate(0,0)"/>
<path d="" fill="#1C2B4C" transform="translate(0,0)"/>
<path d="" fill="#1F2B44" transform="translate(0,0)"/>
<path d="" fill="#172E46" transform="translate(0,0)"/>
<path d="" fill="#1C2D42" transform="translate(0,0)"/>
<path d="" fill="#1C2B4C" transform="translate(0,0)"/>
<path d="" fill="#1A2D46" transform="translate(0,0)"/>
<path d="" fill="#222942" transform="translate(0,0)"/>
<path d="" fill="#1F2B42" transform="translate(0,0)"/>
<path d="" fill="#182B52" transform="translate(0,0)"/>
<path d="" fill="#172E46" transform="translate(0,0)"/>
<path d="" fill="#1D2950" transform="translate(0,0)"/>
<path d="" fill="#182D48" transform="translate(0,0)"/>
<path d="" fill="#1D2B48" transform="translate(0,0)"/>
<path d="" fill="#1A2C4A" transform="translate(0,0)"/>
<path d="" fill="#1F2A48" transform="translate(0,0)"/>
<path d="" fill="#1A2B4C" transform="translate(0,0)"/>
<path d="" fill="#182D46" transform="translate(0,0)"/>
<path d="" fill="#1D2A4A" transform="translate(0,0)"/>
<path d="" fill="#1C2D42" transform="translate(0,0)"/>
<path d="" fill="#1C2B4A" transform="translate(0,0)"/>
<path d="" fill="#1C2D42" transform="translate(0,0)"/>
<path d="" fill="#1A2B4C" transform="translate(0,0)"/>
<path d="" fill="#1A2D44" transform="translate(0,0)"/>
<path d="" fill="#1A2E40" transform="translate(0,0)"/>
<path d="" fill="#1A2C48" transform="translate(0,0)"/>
<path d="" fill="#1F2C3C" transform="translate(0,0)"/>
<path d="" fill="#1F2C3E" transform="translate(0,0)"/>
<path d="" fill="#172E46" transform="translate(0,0)"/>
<path d="" fill="#152E4C" transform="translate(0,0)"/>
<path d="" fill="#152E4C" transform="translate(0,0)"/>
<path d="" fill="#182D4A" transform="translate(0,0)"/>
<path d="" fill="#152E4C" transform="translate(0,0)"/>
<path d="" fill="#152E4C" transform="translate(0,0)"/>
<path d="" fill="#152E4C" transform="translate(0,0)"/>
<path d="" fill="#152E4C" transform="translate(0,0)"/>
<path d="" fill="#152E4C" transform="translate(0,0)"/>
<path d="" fill="#152E4C" transform="translate(0,0)"/>
<path d="" fill="#152E4C" transform="translate(0,0)"/>
<path d="" fill="#152E4C" transform="translate(0,0)"/>
<path d="" fill="#152E4C" transform="translate(0,0)"/>
<path d="" fill="#152E4C" transform="translate(0,0)"/>
<path d="" fill="#152E4C" transform="translate(0,0)"/>
<path d="" fill="#1D2C40" transform="translate(0,0)"/>
<path d="" fill="#152D4E" transform="translate(0,0)"/>
<path d="" fill="#1D2C42" transform="translate(0,0)"/>
<path d="" fill="#1D2C42" transform="translate(0,0)"/>
<path d="" fill="#1C2E3C" transform="translate(0,0)"/>
<path d="" fill="#152F46" transform="translate(0,0)"/>
<path d="" fill="#152F44" transform="translate(0,0)"/>
<path d="" fill="#172D4A" transform="translate(0,0)"/>
<path d="" fill="#152E4A" transform="translate(0,0)"/>
<path d="" fill="#152F46" transform="translate(0,0)"/>
<path d="" fill="#172D4C" transform="translate(0,0)"/>
<path d="" fill="#172E48" transform="translate(0,0)"/>
<path d="" fill="#172D4C" transform="translate(0,0)"/>
<path d="" fill="#152E4A" transform="translate(0,0)"/>
<path d="" fill="#172D4A" transform="translate(0,0)"/>
<path d="" fill="#142E4E" transform="translate(0,0)"/>
<path d="" fill="#152E4C" transform="translate(0,0)"/>
<path d="" fill="#1A2D42" transform="translate(0,0)"/>
<path d="" fill="#182D4A" transform="translate(0,0)"/>
<path d="" fill="#172D4C" transform="translate(0,0)"/>
<path d="" fill="#172E46" transform="translate(0,0)"/>
<path d="" fill="#222B45" transform="translate(0,0)"/>
<path d="" fill="#1D2C42" transform="translate(0,0)"/>
<path d="" fill="#1B2D4B" transform="translate(0,0)"/>
<path d="" fill="#152D4E" transform="translate(0,0)"/>
<path d="" fill="#1A2C53" transform="translate(0,0)"/>
<path d="" fill="#182C4C" transform="translate(0,0)"/>
<path d="" fill="#1C2B48" transform="translate(0,0)"/>
<path d="" fill="#182D48" transform="translate(0,0)"/>
<path d="" fill="#1A2C48" transform="translate(0,0)"/>
<path d="" fill="#152E4C" transform="translate(0,0)"/>
<path d="" fill="#123048" transform="translate(0,0)"/>
<path d="" fill="#152E4C" transform="translate(0,0)"/>
<path d="" fill="#152D50" transform="translate(0,0)"/>
<path d="" fill="#142E4E" transform="translate(0,0)"/>
<path d="" fill="#142F4A" transform="translate(0,0)"/>
<path d="" fill="#152F48" transform="translate(0,0)"/>
<path d="" fill="#172D4A" transform="translate(0,0)"/>
<path d="" fill="#152E4A" transform="translate(0,0)"/>
<path d="" fill="#152F48" transform="translate(0,0)"/>
<path d="" fill="#152F44" transform="translate(0,0)"/>
<path d="" fill="#142F48" transform="translate(0,0)"/>
<path d="" fill="#172D4C" transform="translate(0,0)"/>
<path d="" fill="#142F4A" transform="translate(0,0)"/>
<path d="" fill="#172F44" transform="translate(0,0)"/>
<path d="" fill="#142F4C" transform="translate(0,0)"/>
<path d="" fill="#1C2C46" transform="translate(0,0)"/>
<path d="" fill="#182E42" transform="translate(0,0)"/>
<path d="" fill="#1C2C46" transform="translate(0,0)"/>
<path d="" fill="#172F44" transform="translate(0,0)"/>
<path d="" fill="#172D4A" transform="translate(0,0)"/>
<path d="" fill="#172E46" transform="translate(0,0)"/>
<path d="" fill="#172D4A" transform="translate(0,0)"/>
<path d="" fill="#172E46" transform="translate(0,0)"/>
<path d="" fill="#172D4A" transform="translate(0,0)"/>
<path d="" fill="#172D4A" transform="translate(0,0)"/>
<path d="" fill="#122F4E" transform="translate(0,0)"/>
<path d="" fill="#152E4A" transform="translate(0,0)"/>
<path d="" fill="#152E4C" transform="translate(0,0)"/>
<path d="" fill="#1A2C4A" transform="translate(0,0)"/>
<path d="" fill="#182D48" transform="translate(0,0)"/>
<path d="" fill="#172D4A" transform="translate(0,0)"/>
<path d="" fill="#182C4C" transform="translate(0,0)"/>
<path d="" fill="#182C4C" transform="translate(0,0)"/>
<path d="" fill="#172D4A" transform="translate(0,0)"/>
<path d="" fill="#142E4E" transform="translate(0,0)"/>
<path d="" fill="#122E52" transform="translate(0,0)"/>
<path d="" fill="#122F4E" transform="translate(0,0)"/>
<path d="" fill="#152F44" transform="translate(0,0)"/>
<path d="" fill="#122F4E" transform="translate(0,0)"/>
<path d="" fill="#152E4A" transform="translate(0,0)"/>
<path d="" fill="#172E46" transform="translate(0,0)"/>
<path d="" fill="#152D4E" transform="translate(0,0)"/>
<path d="" fill="#172D4C" transform="translate(0,0)"/>
<path d="" fill="#172D4E" transform="translate(0,0)"/>
<path d="" fill="#242B34" transform="translate(0,0)"/>
<path d="" fill="#172D4A" transform="translate(0,0)"/>
<path d="" fill="#172E48" transform="translate(0,0)"/>
<path d="" fill="#182D48" transform="translate(0,0)"/>
<path d="" fill="#1A2D46" transform="translate(0,0)"/>
<path d="" fill="#152F46" transform="translate(0,0)"/>
<path d="" fill="#152F46" transform="translate(0,0)"/>
<path d="" fill="#152F48" transform="translate(0,0)"/>
<path d="" fill="#1A2D46" transform="translate(0,0)"/>
<path d="" fill="#152E4A" transform="translate(0,0)"/>
<path d="" fill="#172D4E" transform="translate(0,0)"/>
<path d="" fill="#172D4E" transform="translate(0,0)"/>
<path d="" fill="#172D4E" transform="translate(0,0)"/>
<path d="" fill="#1D2B46" transform="translate(0,0)"/>
<path d="" fill="#172E48" transform="translate(0,0)"/>
<path d="" fill="#162B4D" transform="translate(0,0)"/>
<path d="" fill="#152F48" transform="translate(0,0)"/>
<path d="" fill="#172E48" transform="translate(0,0)"/>
<path d="" fill="#1C2D42" transform="translate(0,0)"/>
<path d="" fill="#1A2D46" transform="translate(0,0)"/>
<path d="" fill="#19294F" transform="translate(0,0)"/>
<path d="" fill="#172B4B" transform="translate(0,0)"/>
<path d="" fill="#182C4E" transform="translate(0,0)"/>
</svg>
